<?xml version="1.0" standalone="no"?>
<!DOCTYPE svg PUBLIC "-//W3C//DTD SVG 20010904//EN"
 "http://www.w3.org/TR/2001/REC-SVG-20010904/DTD/svg10.dtd">
<svg version="1.0" xmlns="http://www.w3.org/2000/svg"
 width="200.000000pt" height="200.000000pt" viewBox="0 0 200.000000 200.000000"
 preserveAspectRatio="xMidYMid meet">
<metadata>
Created by potrace 1.14, written by Peter Selinger 2001-2017
</metadata>
<g transform="translate(0.000000,200.000000) scale(0.100000,-0.100000)"
fill="#000000" stroke="none">
<path d="M908 1948 c-42 -4 -96 -12 -120 -19 -24 -6 -50 -12 -58 -14 -8 -2
-39 -12 -68 -24 -236 -94 -418 -262 -522 -483 -264 -564 64 -1215 678 -1345
21 -4 105 -7 187 -7 122 0 165 4 233 22 310 82 566 321 666 622 34 105 38 128
42 275 3 147 -5 208 -42 321 -51 158 -113 254 -244 384 -64 64 -121 109 -173
139 -74 42 -178 88 -218 97 -10 2 -27 6 -36 8 -124 28 -210 34 -325 24z"/>
</g>
</svg>
