<?xml version="1.0" standalone="no"?>
<!DOCTYPE svg PUBLIC "-//W3C//DTD SVG 20010904//EN"
 "http://www.w3.org/TR/2001/REC-SVG-20010904/DTD/svg10.dtd">
<svg version="1.0" xmlns="http://www.w3.org/2000/svg"
 width="300.000000pt" height="300.000000pt" viewBox="0 0 300.000000 300.000000"
 preserveAspectRatio="xMidYMid meet">
<metadata>
Created by potrace 1.14, written by Peter Selinger 2001-2017
</metadata>
<g transform="translate(0.000000,300.000000) scale(0.100000,-0.100000)"
fill="#000000" stroke="none">
<path d="M13 2993 c-10 -3 -13 -42 -13 -144 0 -152 -1 -149 59 -128 24 9 31
16 28 30 -3 12 2 20 15 25 26 8 35 -3 20 -26 -13 -21 -8 -23 23 -10 14 6 15 9
5 10 -11 0 -11 3 4 11 14 9 22 7 34 -5 14 -13 14 -16 2 -16 -13 0 -13 -2 0
-11 12 -9 11 -10 -7 -6 -31 7 -29 -9 2 -17 14 -4 25 -14 25 -23 0 -15 2 -15
19 1 18 16 139 51 148 43 2 -3 -36 -21 -84 -42 -91 -38 -191 -83 -254 -112
-34 -16 -36 -20 -38 -70 -1 -29 1 -53 3 -53 3 0 34 13 68 28 47 22 74 28 106
24 40 -4 42 -3 42 22 0 16 5 26 13 24 6 -1 37 7 67 17 33 12 79 19 115 18 73
-1 81 -3 125 -31 19 -13 61 -30 93 -39 37 -11 62 -24 69 -37 6 -12 15 -23 19
-26 5 -3 10 -25 11 -48 2 -23 5 -42 8 -42 3 0 23 11 45 23 30 17 48 21 68 16
39 -11 25 5 -46 51 -63 40 -75 57 -15 20 41 -25 48 -25 48 -1 0 21 17 37 28
26 3 -3 0 -10 -7 -14 -7 -5 -10 -14 -7 -20 4 -6 3 -11 -3 -11 -13 0 40 -55 60
-63 8 -3 1 -6 -16 -7 -16 -1 -24 -4 -17 -7 6 -2 9 -10 6 -15 -4 -7 -2 -8 5 -4
6 4 18 3 26 -4 8 -7 15 -7 19 -1 4 6 13 8 20 5 10 -4 12 2 9 20 -3 16 -1 26 6
26 6 0 11 6 11 14 0 7 7 26 15 42 11 22 12 30 2 36 -7 4 -8 8 -4 8 4 0 3 9 -3
21 -12 21 -4 83 9 74 13 -8 41 19 46 44 2 13 -3 30 -12 40 -15 14 -16 14 -11
0 3 -9 3 -20 0 -26 -11 -17 -50 -25 -58 -12 -5 8 -11 5 -18 -10 l-12 -21 -22
20 c-17 16 -20 25 -12 45 5 14 5 27 0 30 -4 3 -11 18 -15 34 -5 23 -10 27 -30
23 -28 -5 -29 -3 -13 33 14 31 32 33 23 3 -5 -20 -4 -21 5 -5 6 9 8 22 5 27
-3 6 -2 10 3 10 16 0 21 -13 12 -30 -8 -14 -3 -25 19 -49 20 -21 31 -27 34
-19 3 8 6 6 6 -4 1 -10 -5 -18 -12 -18 -15 0 -20 -37 -6 -45 5 -4 9 1 9 9 0
17 11 25 42 31 12 3 25 9 28 15 5 7 11 6 20 -4 15 -19 30 -12 30 15 0 10 3 19
8 19 14 -1 42 -27 35 -34 -4 -4 0 -4 10 0 9 3 17 14 17 23 0 18 -19 52 -20 36
0 -5 -7 -2 -14 8 -20 25 -9 60 14 47 9 -5 20 -7 23 -4 9 9 19 -35 11 -48 -4
-7 1 -6 12 4 15 13 21 14 31 3 7 -7 8 -16 2 -22 -5 -5 -1 -9 11 -9 13 0 20 7
20 18 0 10 -6 18 -14 18 -19 0 -27 25 -13 39 18 18 30 13 24 -10 -4 -17 -3
-18 9 -8 11 9 18 8 32 -4 9 -9 22 -16 27 -16 6 -1 17 -7 26 -15 17 -14 72 -19
64 -6 -3 4 2 13 9 19 18 15 36 -12 28 -43 -5 -21 -5 -21 16 -2 17 15 25 16 36
7 11 -9 15 -8 21 6 5 10 7 21 7 26 -1 4 3 7 8 7 5 0 9 5 7 11 -1 6 4 14 10 16
10 3 11 -7 8 -40 l-6 -45 38 -4 c26 -4 41 -1 46 9 7 12 12 11 29 -7 19 -20 20
-20 33 -3 7 10 17 15 21 11 4 -4 14 -2 22 4 12 10 14 9 10 -7 -2 -11 -10 -19
-16 -17 -28 5 -9 -25 21 -34 17 -5 31 -15 29 -22 -1 -6 4 -12 11 -12 8 0 14 7
14 15 0 8 -6 15 -14 15 -10 0 -11 5 -3 19 5 11 10 29 10 40 0 12 4 21 10 21 5
0 8 -13 6 -30 -2 -16 1 -30 6 -30 5 0 7 -4 4 -9 -3 -5 1 -12 10 -15 8 -3 12
-2 9 3 -3 5 -1 12 5 16 13 8 13 55 0 55 -5 0 -10 6 -10 13 0 6 -9 23 -20 37
-26 33 -25 39 8 36 15 -2 28 -10 30 -20 2 -9 11 -16 20 -17 14 0 13 -2 -3 -9
-11 -5 -14 -9 -6 -9 11 -1 11 -4 1 -16 -9 -11 -9 -15 -1 -15 7 0 9 -5 6 -10
-4 -6 -4 -29 0 -51 l7 -40 19 22 c24 27 24 28 -1 22 -12 -3 -20 0 -20 6 0 7 5
9 10 6 14 -9 24 23 12 38 -5 7 -6 21 -1 32 4 11 8 59 8 108 1 48 5 87 11 87 5
0 9 -12 10 -27 0 -16 2 -64 3 -108 2 -44 2 -84 -1 -89 -3 -6 -4 -33 -3 -62 2
-49 1 -52 -18 -47 -19 5 -21 1 -21 -33 -1 -32 -3 -36 -13 -24 -15 19 -53 25
-62 9 -5 -8 -1 -9 14 -4 12 3 21 3 20 -2 -4 -23 2 -35 17 -29 9 3 12 2 9 -5
-4 -6 -13 -8 -21 -5 -8 3 -24 -4 -37 -17 -12 -12 -25 -21 -29 -19 -13 4 -9 -6
10 -24 16 -17 16 -17 -3 -10 -11 5 -28 8 -37 8 -23 -1 -30 26 -18 68 6 19 10
36 10 36 0 2 -58 13 -77 16 -7 1 -13 14 -13 30 0 52 -53 83 -100 58 -15 -8
-19 -7 -17 2 2 7 -1 3 -7 -9 -7 -16 -16 -21 -35 -17 -29 5 -67 -19 -57 -35 5
-7 13 -7 25 1 22 13 84 3 101 -17 16 -19 -9 -30 -45 -21 -44 11 -27 -2 25 -19
28 -9 50 -19 50 -21 0 -3 -11 -15 -25 -28 -28 -26 -32 -44 -10 -52 31 -12 13
-21 -27 -13 -42 8 -121 -5 -144 -23 -18 -14 -42 100 -28 132 18 38 27 103 15
95 -6 -3 -11 0 -11 7 0 7 -11 1 -25 -14 -16 -18 -30 -26 -40 -21 -10 3 -21 0
-27 -8 -7 -10 -8 -4 -4 20 5 27 3 31 -7 22 -8 -6 -17 -7 -22 -3 -4 4 -3 -3 4
-15 13 -25 5 -53 -14 -53 -7 0 -16 -6 -18 -12 -3 -8 -6 -9 -6 -2 -1 7 -12 9
-26 6 -20 -3 -24 -9 -20 -26 4 -11 3 -16 -2 -11 -4 6 -23 20 -40 33 -25 17
-33 19 -33 8 0 -9 -11 -16 -27 -18 -23 -2 -28 -8 -29 -33 -1 -19 6 -37 19 -47
11 -10 15 -18 10 -18 -6 0 -13 -9 -16 -21 -4 -15 -2 -18 7 -10 10 9 11 2 6
-34 -6 -42 -5 -44 18 -47 14 -2 27 -10 29 -18 4 -12 3 -12 -5 -2 -7 11 -12 11
-25 -2 -8 -9 -23 -16 -31 -16 -9 0 -16 -7 -16 -16 0 -10 -6 -14 -15 -10 -22 8
-45 -4 -45 -23 0 -14 -2 -14 -10 -1 -6 9 -5 19 3 29 10 12 8 13 -14 8 -19 -5
-29 -3 -33 8 -3 8 -13 15 -23 15 -17 -1 -16 -2 1 -15 11 -8 14 -15 8 -15 -9 0
-10 -5 -2 -19 15 -29 12 -41 -10 -41 -11 0 -20 -5 -20 -11 0 -5 -5 -7 -10 -4
-18 11 -38 -14 -32 -40 4 -22 1 -24 -26 -22 -22 1 -34 9 -42 25 -6 14 -16 22
-25 19 -7 -3 -19 1 -25 9 -7 8 -17 14 -23 14 -5 0 -2 -9 8 -21 19 -20 19 -20
-8 -10 -15 6 -42 18 -59 27 -18 9 -42 18 -53 19 -35 4 -36 5 -31 14 4 5 -3 7
-14 4 -14 -4 -20 -14 -20 -34 0 -16 -5 -29 -11 -29 -8 0 -10 12 -6 36 6 36 -8
64 -33 64 -16 0 -154 71 -163 84 -5 8 -12 5 -21 -7 -16 -21 -17 -21 -148 -11
l-98 7 0 -46 0 -46 34 14 c19 8 37 11 40 6 3 -5 -12 -16 -34 -25 l-40 -16 0
-284 c0 -207 3 -287 12 -292 7 -5 9 -2 6 7 -3 8 0 23 8 34 13 18 14 18 14 1 0
-12 5 -16 16 -12 9 3 22 6 30 6 8 0 13 6 11 13 -1 7 9 12 26 12 15 0 26 -4 25
-10 -2 -5 -9 -9 -15 -9 -7 1 -13 -2 -13 -7 0 -4 13 -7 30 -6 20 1 30 7 30 18
0 16 18 28 48 35 6 1 12 -4 12 -12 0 -8 -7 -14 -15 -14 -8 0 -15 -6 -15 -14 0
-8 -7 -16 -15 -20 -8 -3 -15 -16 -15 -28 l-1 -23 -13 24 c-10 19 -15 21 -22
10 -5 -8 -8 -23 -7 -34 2 -11 0 -14 -3 -7 -7 15 -34 16 -34 1 0 -13 25 -39 39
-39 6 0 8 -13 4 -32 -8 -42 -13 -48 -13 -15 0 14 -4 29 -10 32 -6 4 -10 -6
-10 -23 0 -17 6 -32 13 -35 14 -5 39 6 38 17 -3 22 2 28 9 11 5 -11 9 -15 9
-8 1 6 4 19 7 27 5 12 2 15 -10 10 -9 -3 -16 -1 -16 4 0 6 8 13 18 16 13 5 18
15 17 37 -1 16 2 32 7 35 5 3 8 2 7 -3 -1 -4 -1 -17 0 -28 1 -16 3 -17 11 -5
5 8 12 11 16 7 4 -4 13 -2 21 5 11 9 15 7 20 -10 3 -12 9 -22 14 -22 5 0 9 -8
10 -17 0 -12 5 -8 13 11 11 24 14 26 20 10 4 -9 3 -20 -1 -23 -10 -7 -10 -58
0 -67 4 -4 7 -1 7 7 0 8 10 14 23 15 44 1 92 13 95 23 2 6 8 11 14 11 6 0 19
10 29 22 21 23 24 33 10 23 -5 -3 -12 -2 -14 3 -3 4 5 12 18 18 19 9 25 9 30
-4 5 -13 7 -13 19 3 9 13 15 15 20 6 4 -6 18 -8 31 -5 21 5 23 3 19 -18 -2
-12 -2 -17 2 -10 3 6 10 10 15 6 5 -3 10 10 10 28 l2 33 6 -35 c3 -19 9 -30
12 -25 3 6 2 26 -4 45 -9 32 -10 33 -19 14 -6 -14 -20 -21 -39 -22 -16 0 -27
4 -24 9 4 5 -6 4 -21 -1 -15 -6 -29 -8 -32 -5 -3 2 -11 0 -19 -6 -10 -9 -13
-8 -13 5 0 10 4 15 8 12 15 -9 72 26 78 48 3 14 14 22 29 22 30 2 31 -2 7 -24
-10 -10 -13 -14 -6 -9 6 4 20 4 29 0 14 -5 17 -3 12 10 -3 9 -2 17 2 17 5 0
11 -4 13 -10 2 -6 8 -6 18 0 22 14 -2 27 -45 25 -29 -1 -32 1 -21 17 6 10 16
16 22 14 6 -2 17 0 23 5 6 5 9 6 6 3 -7 -10 15 -34 31 -34 8 0 13 3 13 8 -3
20 2 32 12 26 8 -4 8 -1 1 12 -5 11 -7 27 -3 37 6 16 7 16 23 -2 9 -11 14 -22
11 -25 -4 -3 -1 -6 6 -6 6 0 14 7 17 15 4 8 11 12 17 8 7 -4 8 1 4 13 -6 17
-5 17 5 3 14 -17 53 -35 43 -20 -3 5 -1 12 4 15 5 3 11 -1 15 -9 3 -8 1 -17
-5 -20 -5 -4 -7 -10 -5 -14 7 -10 -22 -51 -36 -51 -5 0 -8 7 -5 15 4 8 2 17
-4 20 -5 4 -7 10 -5 14 3 4 -2 8 -10 8 -9 0 -14 -8 -12 -20 2 -14 -4 -21 -20
-23 -32 -5 -72 -34 -72 -51 0 -10 -6 -13 -16 -9 -10 4 -13 2 -8 -7 14 -24 37
-47 48 -47 6 0 2 7 -8 15 -17 13 -18 15 -3 15 16 0 21 -11 18 -37 -1 -7 3 -14
9 -14 25 -3 29 -4 35 -11 4 -3 2 -15 -3 -25 -7 -12 -7 -25 -1 -36 8 -13 6 -17
-4 -17 -18 0 -30 27 -17 35 6 4 10 13 10 21 0 8 -5 12 -10 9 -6 -4 -8 -10 -5
-15 3 -4 -2 -11 -10 -14 -18 -6 -31 17 -19 35 4 7 2 10 -5 8 -15 -5 -15 -9 -7
-71 4 -27 11 -48 16 -48 5 0 7 14 4 30 -5 20 -3 30 6 30 7 0 10 -6 7 -14 -3
-8 0 -17 8 -19 8 -4 12 -18 10 -38 -1 -18 6 -47 17 -66 25 -41 29 -42 18 -4
-4 16 -6 32 -2 35 3 3 1 6 -5 6 -6 0 -13 9 -16 21 -3 13 -1 19 6 16 7 -3 11
-11 9 -18 -3 -12 -1 -12 10 -1 11 11 10 16 -5 27 -11 8 -14 14 -7 17 17 5 16
91 -1 128 -7 16 -2 47 9 59 12 12 10 16 -9 26 l-22 13 25 0 c17 0 30 -9 39
-24 7 -13 17 -24 22 -24 6 0 2 -10 -9 -22 -10 -12 -14 -18 -7 -14 7 4 24 -1
38 -10 29 -19 33 -9 8 18 -19 21 -14 31 11 22 12 -5 14 -9 6 -14 -7 -5 -6 -11
6 -21 10 -8 15 -9 12 -4 -3 6 -2 19 3 30 6 17 8 17 8 3 1 -10 7 -18 14 -18 6
0 12 -11 12 -25 0 -14 -4 -25 -9 -25 -5 0 -7 -3 -4 -6 4 -3 2 -19 -2 -35 -5
-17 -5 -29 1 -29 5 0 8 -19 7 -42 -3 -39 -1 -42 30 -50 35 -9 40 -26 17 -62
-21 -31 -27 -66 -12 -67 7 -1 24 0 40 1 31 2 35 -7 10 -26 -11 -8 -13 -13 -6
-14 7 0 10 -7 6 -16 -5 -14 -3 -15 15 -5 12 7 22 8 22 3 0 -11 -34 -22 -72
-22 -17 0 -31 7 -38 20 -9 17 -17 19 -55 13 -37 -5 -46 -3 -51 12 -5 13 -9 14
-15 4 -8 -13 -37 -14 -171 -5 -26 1 -45 -1 -42 -6 3 -4 -2 -5 -10 -2 -9 3 -13
10 -10 15 3 5 -3 6 -12 2 -11 -4 -13 -8 -6 -11 7 -2 12 -8 12 -13 0 -6 -4 -8
-9 -5 -5 3 -14 -1 -21 -9 -13 -16 -2 -20 49 -15 18 1 22 -2 18 -14 -6 -15 13
-22 48 -17 6 1 -1 -8 -14 -19 -13 -11 -33 -21 -45 -22 -11 -1 11 -4 49 -7 79
-7 130 5 111 25 -7 8 -17 9 -28 3 -12 -7 -18 -6 -18 1 0 16 31 24 49 13 10 -7
25 -7 41 -1 46 18 63 19 51 4 -9 -11 -4 -15 26 -21 21 -5 46 -7 56 -6 25 3 21
-17 -6 -22 -12 -2 9 -5 46 -6 39 0 66 3 63 8 -4 5 0 11 6 14 16 5 -108 21
-139 18 -31 -3 -37 16 -7 23 13 4 29 4 33 1 5 -3 36 -1 69 3 l60 8 5 -70 c3
-39 6 -111 7 -161 1 -49 5 -144 10 -210 14 -180 14 -184 -14 -195 -37 -14 -41
-30 -7 -30 29 0 29 -1 35 -67 15 -162 15 -155 -3 -149 -13 5 -13 4 2 -8 21
-16 23 -30 3 -23 -11 4 -13 1 -9 -10 5 -13 1 -15 -23 -9 -20 5 -25 4 -15 -3
12 -8 9 -11 -15 -16 -40 -9 -59 -20 -59 -36 0 -15 -63 -31 -67 -17 -2 5 -13
-2 -26 -16 -17 -20 -18 -26 -7 -26 8 0 15 -7 15 -16 0 -13 6 -11 25 10 29 31
40 34 25 6 -10 -18 -7 -20 22 -21 18 -1 37 -1 41 0 5 1 5 -4 1 -10 -7 -12 12
-10 80 7 21 5 25 3 21 -8 -5 -13 8 -15 75 -14 59 1 79 4 75 13 -2 7 5 17 15
23 18 10 20 8 17 -18 -2 -15 -6 -33 -10 -39 -4 -7 1 -14 14 -18 25 -8 39 3 19
15 -8 5 -12 12 -8 15 3 3 12 -1 20 -8 14 -15 68 -12 68 3 0 4 14 13 30 20 36
15 37 20 5 50 -20 19 -24 32 -23 71 0 33 4 46 12 42 6 -4 5 1 -3 11 -8 9 -10
16 -5 15 5 -1 22 -1 37 0 37 1 25 21 -13 21 -33 0 -33 -2 -50 170 -23 221 -24
251 -8 245 8 -3 42 -7 74 -8 l59 -2 -1 -40 c-9 -291 -10 -307 -25 -319 -13 -9
-14 -15 -5 -31 6 -11 14 -22 18 -25 7 -6 16 -50 23 -113 5 -43 26 -87 42 -87
8 0 12 4 9 9 -4 5 4 7 16 3 13 -3 26 -11 30 -18 5 -7 16 -10 27 -7 10 3 22 0
25 -6 12 -18 36 0 37 28 0 22 1 23 8 6 4 -10 7 -30 5 -43 -2 -18 1 -22 13 -18
11 4 13 2 10 -9 -4 -8 -1 -17 5 -21 6 -4 8 -3 4 4 -3 6 0 17 8 25 8 8 13 16
11 18 -2 2 12 4 31 5 29 0 34 -3 34 -23 0 -32 24 -29 40 5 7 15 15 22 17 15 2
-7 11 -9 19 -6 8 3 14 -1 14 -8 0 -10 3 -10 12 -1 17 17 33 15 19 -2 -10 -12
-8 -13 8 -9 12 3 21 2 21 -1 0 -7 -51 -30 -62 -28 -5 1 -8 -3 -8 -9 0 -6 9 -8
23 -4 29 9 29 9 50 0 11 -5 23 -3 30 5 9 10 9 12 -4 7 -33 -11 -37 8 -9 42 26
30 28 31 23 10 l-6 -24 27 24 c14 14 26 35 26 49 l0 24 -20 -23 c-10 -13 -19
-19 -20 -12 0 6 5 15 10 18 17 11 11 45 -8 45 -10 0 -28 7 -41 16 -22 16 -24
15 -45 -11 l-22 -27 -11 25 c-9 20 -9 26 2 31 9 3 12 -1 10 -15 -2 -11 0 -17
6 -14 5 4 9 12 9 19 0 7 9 21 20 31 26 24 25 33 -5 47 -13 6 -22 15 -18 21 3
6 1 7 -5 3 -7 -4 -12 -16 -12 -28 0 -17 2 -18 15 -8 13 11 14 10 9 -4 -11 -28
-43 -13 -38 19 3 19 2 19 -10 2 -18 -23 -29 -22 -16 2 16 32 12 35 -15 10 -27
-26 -32 -45 -12 -52 6 -2 0 -4 -15 -3 -14 0 -24 4 -22 8 3 4 -4 12 -13 18 -16
10 -16 10 3 5 14 -3 27 2 40 16 19 22 19 22 -4 17 -12 -4 -20 -2 -16 3 3 5 13
9 22 10 14 0 13 2 -3 9 -11 5 -14 9 -7 9 7 1 10 6 7 11 -8 13 -55 13 -55 -1 0
-5 -6 -7 -12 -3 -10 5 -10 4 -1 -6 10 -11 15 -11 30 0 17 13 17 13 2 -4 -14
-15 -20 -16 -38 -6 -17 8 -20 15 -12 24 8 10 7 17 -6 27 -14 12 -16 12 -8 0 6
-11 3 -13 -13 -9 -17 5 -21 2 -19 -13 2 -11 9 -25 15 -31 7 -7 12 -16 12 -22
0 -5 -10 1 -21 13 -32 34 -40 152 -12 189 22 31 63 166 63 210 0 16 -9 40 -21
53 -16 18 -19 31 -13 54 12 50 8 94 -11 115 -17 19 -18 33 -10 193 4 94 7 213
6 262 -7 298 -5 355 11 371 14 14 15 13 13 -10 -2 -14 1 -26 7 -26 7 0 8 20 3
55 -3 30 -4 55 -1 55 2 0 15 -20 27 -45 28 -56 41 -67 81 -72 18 -2 33 -4 34
-6 1 -1 5 -47 8 -102 3 -55 8 -108 12 -118 3 -9 0 -25 -7 -34 -10 -12 -10 -15
-1 -9 8 5 12 1 13 -11 0 -10 2 -27 4 -38 4 -28 24 -185 36 -285 6 -47 12 -96
15 -110 12 -77 24 -222 19 -229 -3 -5 -1 -12 4 -15 5 -4 12 -32 16 -64 9 -84
12 -105 18 -122 3 -8 8 -46 11 -85 4 -38 9 -95 12 -125 3 -30 7 -70 8 -88 2
-18 -1 -35 -7 -39 -6 -3 -7 -1 -3 5 4 7 2 12 -3 12 -11 0 -14 -11 -8 -27 1 -5
9 -6 16 -5 13 3 13 1 2 -12 -11 -13 -11 -19 -1 -31 7 -8 18 -15 24 -14 7 0 6
2 -2 6 -6 2 -10 9 -6 14 3 5 -1 9 -8 10 -7 0 -2 4 10 10 22 8 23 13 16 52 -4
23 -8 62 -9 87 -1 25 -4 50 -7 56 -4 5 -12 66 -18 134 -6 69 -20 195 -30 280
-10 85 -18 162 -18 170 -1 8 -6 47 -11 85 -12 80 -37 302 -51 450 -5 55 -13
124 -16 153 -5 38 -4 52 6 52 7 0 21 11 32 25 11 14 24 22 30 19 6 -4 8 1 4
14 -4 12 -1 26 8 35 14 13 14 16 1 27 -8 7 -14 20 -14 29 1 13 2 13 6 -1 6
-24 19 -23 26 2 3 11 0 18 -7 17 -6 -1 -11 7 -11 19 0 11 -6 28 -14 37 -8 11
-9 17 -3 17 6 0 11 15 10 34 -1 23 -5 33 -14 29 -7 -2 -10 -11 -7 -19 3 -8 0
-14 -7 -14 -6 0 -9 -4 -6 -9 4 -5 1 -11 -6 -13 -7 -3 -9 -12 -5 -22 4 -10 13
-16 20 -13 7 3 12 -5 12 -20 l0 -24 -23 28 c-12 15 -21 36 -18 45 5 20 -22 61
-34 53 -10 -6 -35 34 -26 42 3 3 12 0 21 -7 8 -7 21 -10 29 -7 7 3 18 1 23 -4
6 -6 14 -4 23 6 8 10 9 15 1 15 -6 0 -11 -5 -11 -11 0 -8 -4 -8 -14 0 -7 6
-20 9 -28 6 -9 -4 -19 4 -26 20 -7 15 -8 24 -3 20 5 -3 12 -1 16 5 10 16 23
12 21 -6 0 -9 5 -18 12 -20 7 -1 8 0 2 3 -15 7 -12 26 3 20 8 -3 13 3 13 18 0
14 -4 21 -10 17 -6 -4 -21 -7 -34 -7 -17 -1 -22 4 -21 25 0 14 -2 35 -6 47 -5
15 0 28 15 43 l22 22 20 -33 c20 -33 21 -33 29 -12 6 16 13 21 26 16 10 -3 15
-2 10 2 -4 5 0 19 8 32 14 21 14 23 0 23 -8 0 -15 -4 -15 -10 0 -5 -7 -7 -16
-3 -16 6 -16 7 0 18 9 7 28 10 44 7 24 -5 26 -4 13 12 -8 9 -20 15 -28 12 -7
-3 -13 -1 -13 4 0 6 -9 10 -20 10 -19 0 -19 1 -2 20 14 17 18 18 20 5 2 -8 10
-15 19 -15 9 0 13 6 10 14 -4 10 -1 13 9 9 17 -6 18 -20 2 -25 -9 -3 -8 -9 5
-22 22 -23 22 -38 -3 -54 -11 -7 -20 -17 -20 -23 0 -5 4 -8 9 -5 4 3 6 -6 3
-19 -4 -21 -1 -24 14 -19 13 5 9 -2 -11 -22 -16 -16 -34 -29 -40 -29 -5 0 -9
-10 -7 -23 2 -12 -2 -22 -7 -22 -6 0 -11 -4 -11 -10 0 -5 7 -7 15 -4 9 4 15 0
15 -10 0 -9 6 -16 13 -16 8 0 7 -4 -3 -10 -8 -5 -10 -10 -5 -10 27 -1 36 -17
25 -46 l-10 -29 19 25 19 24 21 -24 c11 -14 20 -19 21 -12 0 6 -4 12 -10 12
-5 0 -10 9 -10 20 0 11 -7 23 -16 27 -15 6 -15 7 1 19 17 13 45 9 45 -7 0 -4
-7 -6 -15 -3 -18 7 -20 -7 -3 -24 17 -17 28 -15 28 4 0 14 1 14 16 0 17 -18 9
-40 -12 -32 -17 7 -18 1 -2 -24 12 -18 13 -17 25 10 8 21 17 28 27 24 9 -3 14
-10 11 -14 -3 -5 1 -11 7 -14 7 -4 3 -4 -9 -2 -15 2 -23 -2 -26 -16 -4 -13
-12 -18 -28 -16 -12 2 -24 -3 -26 -9 -3 -7 0 -13 7 -13 6 0 9 -4 5 -9 -3 -5 2
-17 12 -26 12 -13 14 -21 6 -34 -11 -18 -6 -41 9 -41 6 0 8 7 4 15 -3 8 -1 15
4 15 6 0 10 -7 10 -15 0 -7 8 -19 18 -25 16 -11 16 -11 0 -6 -10 3 -20 1 -24
-5 -4 -6 -12 -5 -22 3 -10 8 -13 9 -9 1 4 -6 3 -14 -3 -18 -5 -3 -10 -12 -10
-18 0 -7 4 -6 10 3 5 8 24 16 42 18 25 3 30 1 21 -8 -12 -13 -7 -40 8 -40 5 0
9 7 9 16 0 8 4 12 10 9 7 -4 7 3 0 19 -7 18 -6 26 1 26 8 0 7 5 -1 15 -10 12
-10 15 4 15 9 0 16 -8 17 -17 0 -15 2 -15 8 2 10 23 4 38 -10 30 -5 -4 -9 -2
-9 4 0 5 -3 18 -6 28 -5 14 -4 15 4 4 6 -8 17 -11 27 -7 13 4 15 14 11 38 l-6
33 11 -28 c6 -15 16 -26 23 -23 6 4 19 9 29 12 10 4 16 12 13 19 -2 6 0 18 5
26 7 11 9 11 9 -3 0 -10 5 -18 10 -18 6 0 9 3 9 8 -1 4 -1 12 0 19 1 17 31 4
31 -13 0 -8 4 -14 9 -14 5 0 12 -10 14 -22 3 -13 5 -3 4 22 0 48 -13 74 -30
63 -6 -4 -7 -1 -3 6 5 7 15 10 23 7 11 -5 13 -1 8 15 -4 12 -3 19 1 16 5 -3 9
11 9 31 0 33 3 37 28 39 25 2 27 0 15 -14 -9 -12 -10 -15 0 -9 7 4 12 1 12 -8
0 -9 5 -16 11 -16 5 0 7 -5 4 -10 -4 -6 -11 -8 -16 -5 -5 4 -9 -3 -9 -15 0
-12 -4 -19 -9 -15 -17 10 -21 -13 -5 -26 17 -14 20 -15 66 -17 21 -2 26 -6 23
-22 -4 -22 2 -25 23 -11 11 6 7 13 -14 30 -14 11 -34 21 -43 21 -13 1 -13 2 2
11 15 9 24 6 47 -16 33 -31 42 -33 50 -10 6 16 7 16 22 1 23 -23 31 -20 26 9
-3 14 -1 25 3 25 5 0 6 6 3 14 -3 8 0 17 5 21 6 3 9 11 6 16 -4 5 1 9 9 9 9 0
16 -4 16 -9 0 -5 16 -8 35 -7 24 2 35 -1 35 -10 0 -16 14 -18 40 -4 15 8 17 6
13 -9 -2 -10 -10 -18 -16 -18 -34 1 -46 -5 -52 -23 -3 -11 -13 -20 -22 -20
-18 0 -53 -39 -52 -60 0 -11 2 -11 6 -2 3 9 10 7 24 -9 21 -24 27 -103 9 -114
-16 -10 -12 -25 5 -19 11 5 13 2 9 -10 -3 -9 -11 -16 -18 -16 -6 0 -4 -5 4
-10 13 -9 13 -11 0 -20 -13 -9 -7 -14 13 -11 4 0 7 -11 7 -25 0 -21 -3 -24
-14 -15 -26 22 -29 -20 -3 -48 14 -14 27 -33 30 -41 5 -13 6 -13 6 1 1 9 -8
24 -19 34 -23 21 -26 35 -7 35 14 0 37 -40 37 -64 0 -8 7 -16 15 -20 10 -4 15
1 15 15 0 11 5 29 11 40 9 18 8 19 -18 13 -26 -7 -27 -7 -10 10 9 10 17 26 17
37 0 10 7 19 15 19 14 0 13 -3 -1 -25 -23 -36 -4 -31 42 10 32 30 35 35 16 29
-21 -5 -23 -3 -17 15 3 12 2 21 -2 21 -5 0 -18 7 -29 15 -18 14 -17 15 7 6 15
-5 30 -7 33 -4 3 4 6 -1 6 -10 0 -9 7 -17 16 -17 8 0 12 5 9 10 -3 6 -3 15 0
21 10 16 45 -20 44 -45 0 -20 -1 -20 -9 2 -5 12 -12 22 -16 22 -3 0 -4 -6 -1
-13 7 -17 -8 -42 -25 -42 -7 0 -14 -11 -16 -25 -2 -19 -1 -22 7 -10 8 11 12 9
21 -15 6 -17 19 -38 27 -47 21 -23 6 -23 -19 -1 -18 16 -19 15 -17 -50 1 -41
6 -67 13 -67 6 -1 -2 -7 -19 -15 -16 -7 -25 -14 -20 -14 6 -1 3 -5 -5 -11 -9
-5 -19 -5 -28 2 -9 8 -16 8 -24 0 -7 -7 -8 -12 -2 -12 5 0 3 -4 -4 -9 -10 -6
-11 -17 -1 -54 6 -26 9 -55 7 -65 -5 -17 15 -46 25 -36 3 3 1 20 -4 37 -4 18
-11 48 -14 67 -4 27 -3 32 6 20 8 -12 10 -9 6 13 -5 29 2 34 21 15 7 -7 12 -8
12 -1 0 6 18 9 43 8 37 -2 43 0 45 19 0 12 -2 16 -6 9 -7 -11 -52 -15 -52 -4
0 2 8 10 18 17 14 11 15 16 5 33 -19 31 -16 50 10 56 27 7 37 62 13 71 -8 3
-12 12 -9 20 3 8 9 11 14 8 5 -3 9 2 9 11 0 12 -5 15 -16 11 -10 -4 -14 -2
-11 6 2 7 10 12 16 10 16 -3 15 85 -1 91 -10 3 -10 7 -2 18 6 8 9 34 6 59 -4
35 -7 41 -13 25 -7 -19 -8 -19 -8 2 -1 12 6 29 15 38 19 18 15 25 -14 28 -11
0 -18 5 -15 10 3 5 14 7 24 4 18 -5 19 9 19 474 l0 479 -557 0 c-511 -1 -558
-2 -571 -18 -13 -16 -13 -16 -8 1 5 17 -1 18 -78 16 -68 -2 -83 -6 -82 -18 1
-9 -6 -15 -15 -15 -12 1 -15 -5 -11 -20 4 -21 4 -21 -11 -1 -16 20 -16 20 -17
1 0 -20 0 -20 -15 0 -8 10 -15 27 -15 37 0 13 -8 17 -35 17 -19 0 -35 -4 -35
-10 0 -5 -5 -10 -11 -10 -5 0 -7 5 -4 10 3 6 -1 10 -10 10 -9 0 -19 -9 -22
-20 -3 -11 -9 -20 -14 -20 -5 0 -6 6 -3 14 3 9 -7 15 -33 19 -22 4 -39 2 -41
-3 -2 -6 -11 -10 -20 -10 -15 0 -15 2 -2 10 10 6 -159 9 -467 9 -301 -1 -483
-5 -483 -11 0 -5 -5 -6 -11 -2 -13 7 9 -38 22 -46 4 -3 4 -12 -1 -19 -7 -12
-11 -11 -25 2 -9 10 -12 17 -6 17 6 0 11 5 11 11 0 6 -6 9 -14 6 -10 -4 -16 2
-18 16 -3 21 -9 22 -100 25 l-98 3 0 -25 c0 -14 5 -26 10 -26 6 0 10 -9 10
-20 0 -11 4 -20 8 -20 5 0 9 -7 9 -15 0 -8 -4 -15 -9 -15 -5 0 -6 -6 -2 -12 4
-7 -2 -5 -13 5 -11 9 -23 14 -26 11 -4 -4 -5 21 -2 55 4 56 2 61 -16 61 -16 0
-19 -5 -15 -22 3 -13 3 -17 0 -10 -3 6 -10 10 -15 6 -5 -3 -9 2 -9 10 0 13
-11 16 -52 15 -29 0 -59 -3 -65 -6z m2687 -49 c0 -8 -5 -12 -10 -9 -6 4 -8 11
-5 16 9 14 15 11 15 -7z m-2530 -9 c0 -8 -8 -15 -17 -14 -11 0 -13 3 -5 6 6 2
10 9 6 14 -3 5 0 9 5 9 6 0 11 -7 11 -15z m1647 -7 c-3 -8 -6 -5 -6 6 -1 11 2
17 5 13 3 -3 4 -12 1 -19z m-1182 -50 c11 2 25 10 31 18 14 18 51 26 59 13 4
-5 2 -9 -3 -9 -6 0 -13 -7 -16 -16 -5 -13 -2 -15 14 -11 21 5 21 5 2 -27 -12
-20 -15 -33 -8 -33 6 0 18 -2 26 -4 11 -3 15 4 15 26 1 35 23 95 36 95 4 0 11
-16 15 -36 7 -39 24 -29 19 12 -1 13 4 25 11 28 15 6 15 5 19 -30 1 -12 5 -26
9 -32 3 -6 2 -13 -4 -17 -6 -4 -8 -11 -5 -16 4 -5 -1 -9 -10 -9 -9 0 -13 -4
-10 -10 3 -6 -1 -7 -9 -4 -9 3 -23 -1 -31 -10 -9 -9 -26 -16 -37 -16 -21 0
-21 -1 -3 -20 14 -16 20 -17 27 -8 4 7 8 10 8 6 0 -5 -1 -10 -2 -11 -2 -2 3
-11 10 -20 11 -13 10 -17 -7 -26 -11 -6 -27 -11 -35 -11 -9 0 -16 -5 -16 -11
0 -5 -4 -8 -8 -5 -4 2 -8 -4 -8 -15 0 -10 4 -19 8 -19 4 0 8 -5 8 -12 0 -6 -3
-8 -7 -5 -3 4 -11 -3 -17 -15 -15 -30 -33 -33 -41 -7 -6 17 -9 19 -16 8 -6
-10 -9 -6 -9 14 0 15 5 27 10 27 6 0 10 -4 10 -10 0 -5 7 -7 15 -4 8 4 15 10
15 15 0 4 -7 6 -15 3 -17 -7 -18 5 -6 58 8 34 7 36 -10 25 -20 -12 -33 -47
-17 -47 5 0 6 -6 1 -12 -4 -7 -8 -15 -8 -18 -5 -37 -18 -81 -23 -76 -3 4 -5
26 -4 49 1 23 -2 35 -6 27 -4 -8 -13 -16 -21 -18 -12 -3 -12 0 -2 12 8 9 11
26 8 38 -4 12 -1 29 6 37 10 12 9 14 -5 8 -10 -3 -18 -2 -18 3 0 6 -8 10 -17
10 -14 0 -15 2 -4 9 8 5 9 11 3 15 -6 3 -17 -3 -26 -15 -9 -14 -28 -23 -48
-25 l-33 -3 33 12 c30 11 31 14 19 31 -11 15 -21 18 -46 13 -20 -4 -30 -3 -26
3 9 15 -5 12 -21 -5 -9 -8 -25 -15 -37 -14 -21 0 -21 1 2 10 37 15 19 21 -30
10 -24 -5 -45 -8 -48 -6 -2 3 10 8 28 11 25 5 30 11 26 25 -7 21 25 42 49 33
12 -4 16 0 16 16 0 11 4 19 9 15 5 -3 16 2 24 10 20 20 27 19 27 -4 0 -22 31
-33 47 -16 6 6 14 21 18 34 6 21 7 21 38 -12 21 -22 39 -32 52 -29z m1125 36
c0 -8 -6 -11 -15 -8 -8 4 -15 1 -15 -5 0 -9 -5 -9 -20 -1 -23 12 -18 32 5 23
8 -3 15 0 15 6 0 6 7 8 15 5 8 -4 15 -12 15 -20z m-1388 1 c25 -8 23 -20 -7
-39 -18 -12 -25 -13 -25 -4 0 9 -3 10 -8 2 -9 -14 -62 -24 -62 -13 0 5 -7 9
-15 9 -15 0 -11 23 7 47 9 11 70 10 110 -2z m2235 -2 c7 -21 -30 -33 -47 -15
-13 14 -12 15 3 9 12 -4 17 -1 17 9 0 17 22 14 27 -3z m62 14 c-2 -1 -13 -9
-24 -17 -19 -14 -19 -14 -6 3 7 9 18 17 24 17 6 0 8 -1 6 -3z m-1224 -27 c-3
-5 -11 -10 -16 -10 -6 0 -7 5 -4 10 3 6 11 10 16 10 6 0 7 -4 4 -10z m-456
-56 c1 -7 -9 -9 -24 -6 -30 5 -30 10 -8 42 l17 24 7 -24 c4 -14 7 -30 8 -36z
m1201 22 c-14 -14 -22 -2 -14 18 5 14 9 15 15 4 4 -7 4 -17 -1 -22z m-106 -18
c8 -6 8 -8 0 -8 -15 0 -45 35 -37 44 4 3 11 -1 17 -11 5 -10 14 -21 20 -25z
m-1059 4 c3 -13 13 -31 21 -39 18 -18 10 -33 -19 -33 -16 0 -18 3 -9 9 11 7
11 9 -2 14 -9 4 -15 3 -14 -1 4 -17 -15 -82 -24 -82 -5 0 -6 9 -3 20 5 17 2
20 -22 21 -28 1 -28 1 -3 8 15 4 26 15 28 29 2 12 8 22 14 22 6 0 8 12 5 28
-7 36 19 40 28 4z m540 18 c-3 -5 0 -10 7 -10 10 0 10 -2 -1 -9 -8 -5 -11 -16
-8 -26 4 -9 3 -13 -2 -10 -12 7 -11 65 1 65 5 0 6 -4 3 -10z m1077 -22 c-8 -8
-9 -4 -5 13 4 13 8 18 11 10 2 -7 -1 -18 -6 -23z m-997 12 c3 -5 -1 -10 -10
-10 -9 0 -13 5 -10 10 3 6 8 10 10 10 2 0 7 -4 10 -10z m622 -22 c-3 -7 -5 -2
-5 12 0 14 2 19 5 13 2 -7 2 -19 0 -25z m203 21 c0 -15 -18 -19 -23 -6 -3 8 1
14 9 14 8 0 14 -4 14 -8z m-1550 -20 c0 -11 -4 -18 -10 -14 -5 3 -7 12 -3 20
7 21 13 19 13 -6z m840 -19 c13 0 9 -20 -7 -38 -17 -18 -30 -8 -38 29 -8 37
15 62 27 29 4 -11 12 -20 18 -20z m478 18 c-2 -13 -10 -24 -19 -26 -13 -2 -15
3 -12 23 7 32 36 34 31 3z m-896 -12 c7 4 8 2 4 -5 -10 -15 -26 -4 -25 17 1
15 2 15 6 -1 2 -9 9 -14 15 -11z m145 -8 c-3 -7 -5 -2 -5 12 0 14 2 19 5 13 2
-7 2 -19 0 -25z m513 28 c0 -3 -4 -8 -10 -11 -5 -3 -10 -1 -10 4 0 6 5 11 10
11 6 0 10 -2 10 -4z m150 -6 c0 -5 -4 -10 -9 -10 -6 0 -13 5 -16 10 -3 6 1 10
9 10 9 0 16 -4 16 -10z m-2055 -21 c-10 -15 -25 -10 -19 6 4 8 10 12 15 9 5
-3 7 -10 4 -15z m1596 7 c-6 -8 -11 -18 -10 -22 1 -5 0 -20 -1 -34 -2 -21 -3
-20 -11 10 -10 42 -5 60 17 60 13 0 14 -3 5 -14z m495 -25 c-8 -12 -46 -21
-46 -11 0 9 18 18 38 19 7 1 11 -3 8 -8z m363 -17 c-6 -7 -15 -11 -20 -8 -5 3
-3 11 4 18 16 18 31 8 16 -10z m-443 -11 c-1 -14 -8 -29 -16 -31 -12 -4 -13
-3 -3 10 7 8 10 18 7 21 -5 5 3 27 10 27 2 0 3 -12 2 -27z m99 8 c-3 -6 -11
-11 -17 -11 -6 0 -6 6 2 15 14 17 26 13 15 -4z m285 -5 c0 -8 -7 -19 -15 -26
-10 -9 -15 -9 -15 -1 0 6 5 11 11 11 6 0 9 9 6 20 -3 11 -1 18 4 14 5 -3 9
-11 9 -18z m237 17 c-4 -3 -2 -12 4 -20 9 -9 8 -13 0 -13 -6 0 -11 2 -11 4 0
2 -3 11 -6 20 -4 10 -1 16 7 16 7 0 9 -3 6 -7z m-464 -18 c-3 -9 -8 -14 -10
-11 -3 3 -2 9 2 15 9 16 15 13 8 -4z m-299 -44 c9 -12 8 -12 -11 -2 -15 7 -20
17 -16 28 5 14 8 14 11 2 3 -7 10 -20 16 -28z m100 -2 c-2 -4 3 -9 11 -13 8
-3 15 -10 15 -16 0 -6 -4 -8 -10 -5 -5 3 -10 0 -11 -7 -1 -18 -17 32 -18 57
-1 16 1 17 8 5 6 -8 8 -17 5 -21z m533 24 c-4 -3 -2 -11 3 -18 13 -16 -9 -62
-32 -69 -22 -5 -22 -5 -3 30 9 19 11 32 5 38 -16 16 -11 26 12 26 12 0 18 -3
15 -7z m-1747 -54 c0 -10 -5 -21 -12 -25 -6 -4 -8 -3 -4 4 3 6 1 23 -4 38 -9
24 -9 25 5 14 8 -7 15 -21 15 -31z m-430 6 c11 -13 10 -14 -4 -9 -9 4 -80 -21
-171 -60 -85 -36 -158 -66 -162 -66 -12 1 65 39 142 70 39 15 93 40 120 54 59
30 59 30 75 11z m2231 -22 c-10 -17 -10 -16 -11 3 0 23 13 41 18 25 2 -6 -1
-18 -7 -28z m-505 -11 c-15 -15 -15 -15 -4 10 7 15 15 23 17 17 2 -6 -4 -18
-13 -27z m266 31 c-6 -2 -9 -10 -6 -15 4 -7 2 -8 -4 -4 -18 11 -14 26 6 25 10
0 12 -3 4 -6z m-427 -41 c-2 -9 -4 -18 -4 -19 -1 -2 -10 5 -21 14 -14 13 -17
20 -8 30 14 17 37 -1 33 -25z m382 7 c-3 -11 -1 -17 4 -13 16 9 10 -43 -7 -57
-14 -11 -15 -10 -12 7 2 15 -4 20 -26 22 -16 2 -32 -2 -36 -8 -4 -7 -14 -10
-21 -8 -8 3 0 10 19 19 34 15 44 38 16 35 -9 0 -19 5 -22 13 -4 11 3 12 33 7
25 -5 35 -4 30 3 -4 7 0 8 10 5 10 -4 15 -14 12 -25z m156 -12 c-3 -5 -8 -5
-12 1 -4 6 -14 3 -28 -8 -16 -12 -19 -20 -11 -28 8 -8 0 -21 -27 -47 -28 -26
-41 -32 -46 -23 -6 8 -3 14 7 16 9 2 13 10 10 17 -3 9 0 12 10 8 7 -3 14 0 14
6 0 6 7 8 15 5 8 -4 15 -1 15 5 0 7 -7 14 -15 17 -11 5 -5 13 22 34 24 17 41
23 45 16 4 -5 4 -14 1 -19z m-2013 -13 c0 -2 -9 0 -20 6 -11 6 -20 13 -20 16
0 2 9 0 20 -6 11 -6 20 -13 20 -16z m60 1 c0 -9 -6 -12 -17 -8 -11 4 -13 8 -5
11 7 2 9 9 6 14 -4 7 -2 8 4 4 7 -4 12 -14 12 -21z m1506 -1 c0 -14 -5 -19
-10 -14 -6 6 -15 5 -23 -2 -12 -10 -12 -7 -3 14 15 31 38 32 36 2z m334 16 c0
-5 -4 -10 -10 -10 -5 0 -10 5 -10 10 0 6 5 10 10 10 6 0 10 -4 10 -10z m-1070
-24 c0 -36 -15 -40 -18 -5 -1 16 2 29 8 29 5 0 10 -11 10 -24z m270 7 c0 -23
-50 -27 -71 -7 -18 19 -18 19 26 19 29 0 45 -4 45 -12z m592 8 c11 6 18 6 18
0 0 -5 -6 -12 -12 -14 -10 -4 -10 -7 -1 -14 8 -6 6 -15 -8 -33 -19 -23 -19
-23 -9 -2 9 18 8 26 -4 37 -8 8 -20 15 -26 15 -6 0 -8 5 -4 11 4 7 9 8 17 0 7
-7 16 -7 29 0z m382 -11 c-22 -9 -29 -6 -20 9 4 6 14 7 23 4 15 -6 14 -7 -3
-13z m-628 -5 c-4 -24 -13 -27 -19 -5 -3 13 0 20 8 20 7 0 12 -7 11 -15z m561
-20 c-15 -16 -22 -11 -13 10 3 9 10 13 16 10 6 -4 5 -11 -3 -20z m-1947 -6
c17 -13 18 -17 5 -10 -33 17 -51 31 -40 31 6 0 21 -10 35 -21z m1600 0 c0 -14
-17 -10 -23 5 -4 10 -1 13 9 9 7 -3 14 -9 14 -14z m411 -2 c-10 -9 -11 -8 -5
6 3 10 9 15 12 12 3 -3 0 -11 -7 -18z m-1811 3 c0 -5 -5 -10 -11 -10 -5 0 -7
5 -4 10 3 6 8 10 11 10 2 0 4 -4 4 -10z m1550 -11 c0 -6 -4 -7 -10 -4 -5 3
-10 11 -10 16 0 6 5 7 10 4 6 -3 10 -11 10 -16z m-1420 -15 c0 -8 -4 -13 -9
-9 -6 3 -27 -9 -47 -27 -31 -27 -35 -29 -21 -8 21 30 22 44 1 36 -8 -3 -12 -2
-9 4 3 6 19 8 35 5 16 -3 32 -1 35 5 9 15 15 12 15 -6z m1050 -4 c-6 -11 -13
-20 -16 -20 -2 0 0 9 6 20 6 11 13 20 16 20 2 0 0 -9 -6 -20z m104 3 c-5 -17
-5 -17 9 0 8 9 18 17 22 17 4 0 2 -6 -4 -14 -7 -8 -9 -28 -6 -45 5 -30 5 -31
-13 -14 -18 18 -23 73 -7 73 2 0 2 -8 -1 -17z m-162 -23 c6 0 6 -6 -2 -15 -9
-11 -9 -15 -1 -15 7 0 11 -8 10 -17 -1 -10 0 -22 1 -28 1 -5 1 -34 0 -64 -1
-40 1 -51 11 -45 9 5 10 2 4 -12 -4 -10 -11 -39 -15 -64 -4 -25 -8 -39 -9 -32
0 6 -6 12 -11 12 -6 0 -8 -11 -4 -27 9 -37 -4 -24 -16 16 -5 18 -5 33 1 36 5
4 9 47 9 97 0 89 0 91 -19 74 -13 -12 -21 -14 -26 -6 -3 5 -11 8 -16 5 -5 -4
-9 -4 -9 -1 0 2 -3 13 -6 23 -5 15 -4 15 5 3 8 -12 11 -12 11 -1 0 10 8 12 30
8 32 -7 38 1 18 21 -9 9 -9 12 0 12 7 0 13 12 13 28 1 16 3 20 6 10 2 -10 9
-18 15 -18z m483 17 c-11 -9 -15 -19 -10 -28 6 -11 5 -12 -5 -2 -11 10 -11 15
0 28 7 8 17 15 23 15 6 0 3 -6 -8 -13z m-220 -28 c-20 -37 -14 -47 13 -22 34
30 52 44 52 39 0 -17 -14 -36 -27 -36 -8 0 -23 -10 -34 -22 -13 -17 -18 -19
-19 -8 0 10 -6 8 -19 -9 -16 -20 -19 -21 -24 -7 -4 10 -3 14 2 11 5 -3 12 3
16 14 6 20 43 71 51 71 2 0 -3 -14 -11 -31z m129 -10 c-16 -18 -19 -39 -3 -39
5 0 7 5 4 10 -3 6 -1 10 4 10 6 0 11 -7 11 -15 0 -8 -2 -15 -4 -15 -2 0 -12
-3 -21 -6 -10 -4 -15 -2 -13 7 2 8 -2 13 -8 12 -6 -1 -10 8 -9 20 1 14 8 22
21 22 13 0 18 6 16 20 -2 16 -1 17 7 5 7 -10 6 -19 -5 -31z m-2228 16 c-11 -8
-24 -15 -30 -15 -5 0 -1 7 10 15 10 8 24 14 29 14 6 0 1 -6 -9 -14z m630 -15
c24 -17 44 -33 44 -36 0 -3 -21 9 -47 27 -58 39 -58 39 -49 39 4 0 27 -14 52
-30z m1834 -7 c0 -8 -5 -11 -10 -8 -6 4 -8 11 -5 16 4 5 1 9 -4 9 -6 0 -11 5
-11 11 0 8 5 8 15 -1 8 -7 15 -19 15 -27z m-1312 -8 c-10 -21 -28 -35 -28 -20
0 15 24 54 31 49 5 -2 3 -16 -3 -29z m-38 5 c0 -5 -5 -10 -11 -10 -5 0 -7 5
-4 10 3 6 8 10 11 10 2 0 4 -4 4 -10z m800 -11 c0 -6 -4 -7 -10 -4 -5 3 -10
11 -10 16 0 6 5 7 10 4 6 -3 10 -11 10 -16z m-681 -27 c-10 -7 -19 -20 -19
-28 0 -8 -4 -14 -10 -14 -16 0 -12 30 5 36 8 3 17 15 21 26 5 16 8 17 14 7 6
-8 2 -18 -11 -27z m385 22 c3 -8 2 -12 -4 -9 -6 3 -10 0 -10 -8 0 -8 -7 -21
-16 -28 -15 -12 -16 -11 -9 10 5 16 4 21 -4 17 -6 -4 -11 -3 -11 3 0 9 28 30
41 31 4 0 10 -7 13 -16z m-852 -21 c-6 -2 -9 -10 -6 -15 4 -7 2 -8 -5 -4 -13
9 -5 26 12 25 9 0 8 -2 -1 -6z m1178 -12 c0 -6 -4 -13 -10 -16 -5 -3 -10 1
-10 9 0 9 5 16 10 16 6 0 10 -4 10 -9z m27 -25 c-4 -9 -11 -16 -18 -16 -6 0
-8 7 -5 16 3 9 6 21 6 27 0 8 3 8 11 0 7 -7 9 -19 6 -27z m210 10 c-7 -13 -15
-22 -19 -20 -10 6 9 44 21 44 5 0 4 -11 -2 -24z m90 1 c7 0 10 -4 7 -9 -3 -4
-13 -4 -22 1 -10 5 -26 5 -40 0 -14 -5 -27 -7 -30 -4 -8 8 42 24 58 18 8 -3
20 -6 27 -6z m160 -15 c3 -23 -12 -31 -20 -9 -3 9 -8 9 -21 -2 -20 -17 -29
-10 -20 13 5 14 9 15 15 5 6 -10 9 -9 15 4 9 23 26 17 31 -11z m-1267 -3 c0
-5 -4 -9 -10 -9 -5 0 -10 7 -10 16 0 8 5 12 10 9 6 -3 10 -10 10 -16z m1185
-8 c-3 -6 -11 -11 -17 -11 -6 0 -6 6 2 15 14 17 26 13 15 -4z m-43 -13 c-9 -9
-15 -9 -24 0 -9 9 -7 12 12 12 19 0 21 -3 12 -12z m158 8 c0 -3 -4 -8 -10 -11
-5 -3 -10 -1 -10 4 0 6 5 11 10 11 6 0 10 -2 10 -4z m-1220 -21 c8 5 11 4 6
-3 -3 -5 -25 -13 -49 -17 -46 -8 -97 -34 -97 -50 0 -5 -16 -27 -36 -48 -29
-31 -39 -35 -55 -27 -10 6 -19 13 -19 16 0 2 9 0 19 -5 21 -12 48 10 36 29 -4
6 -3 10 2 9 14 -4 43 13 38 21 -8 13 58 60 83 60 12 0 27 6 34 14 8 9 15 10
19 4 4 -6 12 -7 19 -3z m937 -7 c-3 -8 -6 -5 -6 6 -1 11 2 17 5 13 3 -3 4 -12
1 -19z m-274 -35 c-7 -2 -19 -2 -25 0 -7 3 -2 5 12 5 14 0 19 -2 13 -5z m314
-13 c3 -10 2 -11 -4 -4 -4 6 -15 14 -23 17 -11 5 -9 6 4 4 11 -1 21 -9 23 -17z
m327 -13 c7 -27 2 -32 -15 -14 -8 7 -20 12 -27 9 -7 -2 -12 5 -12 16 0 27 46
18 54 -11z m-223 -9 c-10 -11 -11 -9 -5 6 6 15 4 17 -6 11 -9 -6 -11 -4 -5 4
5 9 10 10 18 2 8 -8 7 -14 -2 -23z m89 22 c0 -5 -5 -10 -11 -10 -5 0 -7 5 -4
10 3 6 8 10 11 10 2 0 4 -4 4 -10z m177 -5 c0 -8 -4 -15 -9 -15 -4 0 -8 7 -8
15 0 8 4 15 8 15 5 0 9 -7 9 -15z m-487 -16 c0 -5 -4 -9 -10 -9 -5 0 -10 7
-10 16 0 8 5 12 10 9 6 -3 10 -10 10 -16z m100 9 c0 -4 -4 -8 -9 -8 -6 0 -12
4 -15 8 -3 5 1 9 9 9 8 0 15 -4 15 -9z m-145 -9 c11 -16 1 -19 -13 -3 -7 8 -8
14 -3 14 5 0 13 -5 16 -11z m95 0 c0 -4 -6 -14 -13 -21 -8 -7 -13 -21 -11 -30
1 -11 -3 -15 -14 -11 -11 5 -14 2 -9 -10 4 -11 1 -17 -8 -17 -8 0 -15 9 -15
20 0 11 7 20 15 20 9 0 12 6 9 15 -4 9 0 15 10 15 9 0 13 6 10 13 -3 8 2 14
11 14 8 0 15 -4 15 -8z m-186 -14 c-10 -7 -22 -11 -27 -8 -12 7 0 19 23 20 21
2 21 1 4 -12z m382 -17 c-9 -12 -16 -17 -16 -10 0 14 23 42 29 37 1 -2 -4 -14
-13 -27z m170 -44 c-3 -7 0 -15 7 -18 7 -2 5 -5 -4 -5 -9 -1 -20 -8 -23 -17
-3 -8 -11 -12 -16 -9 -8 5 -7 12 2 23 10 12 10 14 1 8 -8 -4 -13 -1 -13 8 0 9
6 15 13 14 6 -2 11 2 10 9 -2 7 4 10 13 6 8 -3 13 -11 10 -19z m-1539 -3 c-1
-11 -6 -17 -14 -14 -10 4 -11 9 -2 19 15 19 18 18 16 -5z m1313 9 c0 -5 -7
-10 -16 -10 -8 0 -12 5 -9 10 3 6 10 10 16 10 5 0 9 -4 9 -10z m-1442 -26 c8
-15 8 -21 -1 -21 -7 0 -13 11 -13 24 -2 27 -1 27 14 -3z m1219 -8 c-4 -9 -18
-16 -34 -16 -17 0 -23 -3 -16 -8 8 -5 9 -13 3 -22 -7 -12 -12 -12 -21 -3 -10
10 -9 17 6 33 10 11 25 18 32 16 8 -4 13 3 13 16 0 16 3 19 11 11 7 -7 9 -19
6 -27z m-1680 2 c-3 -8 -6 -5 -6 6 -1 11 2 17 5 13 3 -3 4 -12 1 -19z m658 12
c-3 -5 -14 -10 -23 -10 -15 0 -15 2 -2 10 20 13 33 13 25 0z m1385 -10 c-6
-11 -16 -20 -22 -20 -6 0 -3 9 7 20 10 11 20 20 22 20 2 0 -1 -9 -7 -20z
m-1973 -22 c-3 -8 -6 -5 -6 6 -1 11 2 17 5 13 3 -3 4 -12 1 -19z m119 -28 c0
-9 -6 -17 -14 -17 -7 0 -11 6 -8 13 3 8 1 16 -4 19 -6 4 -10 -1 -10 -9 0 -9
-7 -16 -15 -16 -10 0 -15 10 -15 30 l0 30 33 -17 c18 -10 33 -25 33 -33z
m1564 28 c0 -10 -4 -18 -10 -18 -5 0 -10 2 -10 4 0 2 -2 11 -5 19 -4 8 0 14
10 14 8 0 15 -9 15 -19z m47 -7 c-7 -2 -17 -11 -24 -20 -7 -9 -13 -11 -13 -5
0 6 3 14 8 18 4 4 8 12 8 17 3 19 4 19 18 7 10 -9 11 -14 3 -17z m-1379 -6
c-6 -13 -15 -22 -21 -18 -5 3 -14 -1 -19 -8 -8 -11 -9 -11 -5 2 3 9 1 21 -4
26 -6 6 -4 10 5 10 8 0 13 -4 10 -9 -3 -4 0 -8 6 -8 6 0 13 7 16 15 4 8 10 15
15 15 5 0 4 -11 -3 -25z m1937 -6 c-4 -5 -13 -9 -22 -9 -13 0 -13 3 -3 15 13
15 35 11 25 -6z m-1725 1 c0 -5 -4 -10 -10 -10 -5 0 -10 5 -10 10 0 6 5 10 10
10 6 0 10 -4 10 -10z m1210 7 c0 -2 -10 -12 -22 -23 l-23 -19 19 23 c18 21 26
27 26 19z m44 -18 c-8 -13 -21 -11 -27 5 -4 10 0 12 14 9 10 -3 16 -9 13 -14z
m-1894 -4 c-14 -17 -30 -20 -30 -6 0 5 8 12 18 14 9 3 19 5 21 6 2 0 -2 -6 -9
-14z m50 5 c12 -8 11 -10 -7 -10 -13 0 -23 5 -23 10 0 13 11 13 30 0z m60 0
c0 -5 -5 -10 -11 -10 -5 0 -7 5 -4 10 3 6 8 10 11 10 2 0 4 -4 4 -10z m165 1
c3 -5 1 -12 -4 -15 -5 -3 -11 1 -15 9 -6 16 9 21 19 6z m1433 -13 c2 -8 -4
-15 -13 -15 -8 0 -15 9 -15 20 0 22 23 18 28 -5z m298 7 c-11 -8 -25 -15 -30
-15 -6 1 0 7 14 15 32 19 40 18 16 0z m-2169 -1 c-3 -3 -12 -4 -19 -1 -8 3 -5
6 6 6 11 1 17 -2 13 -5z m60 0 c-3 -3 -12 -4 -19 -1 -8 3 -5 6 6 6 11 1 17 -2
13 -5z m-150 -26 c-3 -8 -6 -5 -6 6 -1 11 2 17 5 13 3 -3 4 -12 1 -19z m708 2
c3 -5 1 -10 -4 -10 -6 0 -11 5 -11 10 0 6 2 10 4 10 3 0 8 -4 11 -10z m169 -5
c3 -8 1 -15 -4 -15 -6 0 -10 7 -10 15 0 8 2 15 4 15 2 0 6 -7 10 -15z m1036
11 c0 -3 -4 -8 -10 -11 -5 -3 -10 -1 -10 4 0 6 5 11 10 11 6 0 10 -2 10 -4z
m238 -3 c-10 -2 -18 -9 -18 -14 0 -5 -5 -9 -11 -9 -8 0 -8 5 1 15 7 8 20 14
29 14 13 -1 13 -2 -1 -6z m537 -3 c3 -5 1 -10 -4 -10 -6 0 -11 5 -11 10 0 6 2
10 4 10 3 0 8 -4 11 -10z m-2587 -34 c-1 -26 -4 -31 -13 -23 -6 7 -14 22 -17
35 -5 17 -2 22 13 22 15 0 18 -7 17 -34z m42 10 c0 -14 -4 -27 -9 -30 -10 -6
-23 33 -15 46 10 16 24 7 24 -16z m2370 20 c0 -3 -4 -8 -10 -11 -5 -3 -10 -1
-10 4 0 6 5 11 10 11 6 0 10 -2 10 -4z m-2260 -27 c0 -22 -24 -52 -34 -42 -10
10 -7 25 4 18 6 -4 10 5 10 19 0 14 5 26 10 26 6 0 10 -9 10 -21z m56 5 c-3
-9 -6 -22 -6 -30 0 -9 -4 -12 -10 -9 -17 10 -12 55 6 55 11 0 14 -5 10 -16z
m54 -14 c0 -23 -4 -30 -20 -30 -16 0 -20 7 -20 30 0 23 4 30 20 30 16 0 20 -7
20 -30z m31 -11 c-9 -23 -10 -22 -10 11 -1 23 2 31 9 24 7 -7 7 -19 1 -35z
m49 11 c0 -22 -4 -28 -15 -24 -8 4 -15 17 -15 30 0 15 6 24 15 24 10 0 15 -10
15 -30z m1784 15 c-4 -8 -11 -15 -16 -15 -6 0 -5 6 2 15 7 8 14 15 16 15 2 0
1 -7 -2 -15z m-2227 -17 c-3 -8 -6 -5 -6 6 -1 11 2 17 5 13 3 -3 4 -12 1 -19z
m603 10 c0 -4 -6 -8 -14 -8 -8 0 -17 4 -20 8 -2 4 4 8 15 8 10 0 19 -4 19 -8z
m1839 -25 c1 -1 0 -7 -4 -12 -7 -13 -35 10 -35 30 0 8 5 8 18 -2 9 -7 19 -14
21 -16z m-1639 7 c0 -5 -5 -10 -11 -10 -5 0 -7 5 -4 10 3 6 8 10 11 10 2 0 4
-4 4 -10z m60 0 c0 -5 -4 -10 -10 -10 -5 0 -10 5 -10 10 0 6 5 10 10 10 6 0
10 -4 10 -10z m1254 1 c-9 -9 -34 -9 -34 -1 0 5 9 8 20 7 10 -1 17 -3 14 -6z
m-1400 -17 c3 -8 2 -12 -4 -9 -6 3 -10 10 -10 16 0 14 7 11 14 -7z m53 -6 c-3
-8 -6 -5 -6 6 -1 11 2 17 5 13 3 -3 4 -12 1 -19z m1913 -14 c0 -8 -5 -12 -10
-9 -6 4 -8 11 -5 16 9 14 15 11 15 -7z m-2070 -9 c0 -8 -4 -15 -10 -15 -5 0
-10 7 -10 15 0 8 5 15 10 15 6 0 10 -7 10 -15z m90 5 c0 -5 -8 -10 -17 -10
-15 0 -16 2 -3 10 19 12 20 12 20 0z m1424 3 c-5 -5 -12 -12 -16 -18 -4 -6 -8
-2 -8 8 0 9 7 17 17 17 9 0 12 -3 7 -7z m-1710 -38 c-15 -20 -29 -34 -31 -31
-5 4 46 66 54 66 2 0 -8 -16 -23 -35z m417 12 c-10 -9 -11 -8 -5 6 3 10 9 15
12 12 3 -3 0 -11 -7 -18z m-371 -1 c0 -2 -8 -10 -17 -17 -16 -13 -17 -12 -4 4
13 16 21 21 21 13z m320 -6 c0 -5 -4 -10 -10 -10 -5 0 -10 5 -10 10 0 6 5 10
10 10 6 0 10 -4 10 -10z m1805 -10 c-3 -5 -1 -10 6 -10 7 0 10 -3 6 -6 -9 -9
-28 6 -22 17 4 5 8 9 11 9 3 0 2 -4 -1 -10z m-1935 -10 c0 -5 -5 -10 -11 -10
-5 0 -7 5 -4 10 3 6 8 10 11 10 2 0 4 -4 4 -10z m131 -34 c4 -4 10 -3 13 3 4
6 13 11 19 11 7 0 6 -4 -3 -10 -13 -9 -13 -11 0 -20 14 -9 7 -14 -13 -11 -5 1
-6 -11 -2 -27 8 -39 -17 -49 -52 -22 -23 18 -23 20 -6 20 10 0 24 -5 31 -12 9
-9 12 -8 12 5 0 15 -10 21 -31 19 -3 -1 -5 13 -4 31 2 18 -2 39 -9 47 -6 8 1
6 14 -5 14 -11 28 -24 31 -29z m-178 19 c4 -8 2 -17 -2 -20 -5 -2 -11 4 -14
15 -6 23 8 27 16 5z m81 0 c-7 -16 -24 -21 -24 -6 0 8 7 13 27 20 1 1 0 -6 -3
-14z m2000 -23 c-4 -19 -11 -29 -19 -26 -10 4 -10 11 2 35 18 37 25 33 17 -9z
m-2228 -2 c0 -11 -6 -20 -13 -20 -7 0 -13 -4 -13 -8 0 -4 -12 -9 -27 -10 l-28
-2 33 30 c39 35 48 37 48 10z m45 11 c-8 -5 -16 -17 -17 -26 -2 -13 5 -10 29
11 17 16 25 21 18 12 -7 -10 -10 -18 -6 -18 4 0 1 -8 -6 -17 -12 -16 -12 -17
2 -6 12 10 18 9 32 -8 11 -12 22 -17 30 -12 6 4 30 8 52 9 l40 2 -32 -9 c-18
-5 -33 -16 -33 -24 0 -7 -5 -17 -10 -20 -7 -4 -9 4 -6 22 4 24 3 25 -7 12 -9
-12 -18 -14 -35 -8 -13 5 -22 4 -22 -1 0 -5 -6 -8 -12 -6 -7 1 -10 1 -7 -1 12
-7 -3 -43 -17 -44 -8 -1 -20 -2 -26 -3 -7 -1 -16 -9 -20 -19 -4 -10 -12 -16
-16 -13 -5 3 -18 -1 -28 -9 -28 -21 -35 -18 -28 11 5 20 4 25 -6 19 -9 -6 -10
-3 -1 13 7 13 17 19 26 16 8 -4 12 -11 8 -18 -3 -6 3 -3 14 7 11 9 23 14 26
10 4 -3 7 -2 7 3 0 6 -5 15 -11 21 -12 12 45 103 64 103 7 0 7 -4 -2 -9z
m-261 -10 c0 -6 12 -6 30 -1 18 5 30 5 30 -1 0 -5 -9 -9 -20 -9 -15 0 -20 -7
-20 -27 0 -21 -3 -24 -9 -13 -6 8 -7 18 -4 23 3 4 -4 11 -16 14 -24 6 -28 23
-6 23 8 0 15 -4 15 -9z m120 0 c0 -16 -12 -41 -19 -41 -6 0 -7 32 -2 48 3 7
21 1 21 -7z m30 -1 c0 -5 -5 -10 -11 -10 -5 0 -7 5 -4 10 3 6 8 10 11 10 2 0
4 -4 4 -10z m220 0 c12 6 17 5 17 -6 0 -9 -11 -14 -29 -14 -15 0 -28 -5 -28
-11 0 -5 -4 -7 -10 -4 -17 11 -12 35 7 28 12 -5 14 -3 8 8 -6 11 -5 12 5 2 8
-8 19 -9 30 -3z m-423 -42 c-3 -7 -5 -2 -5 12 0 14 2 19 5 13 2 -7 2 -19 0
-25z m528 22 c3 -5 1 -10 -4 -10 -6 0 -11 5 -11 10 0 6 2 10 4 10 3 0 8 -4 11
-10z m1319 -6 c13 -33 6 -49 -9 -20 -18 33 -18 36 -6 36 5 0 12 -7 15 -16z
m689 -1 c2 -10 8 -27 13 -38 5 -13 -2 -8 -19 11 -31 36 -33 44 -13 44 7 0 16
-8 19 -17z m-75 -20 c-1 -10 1 -24 5 -30 6 -9 3 -11 -7 -7 -20 8 -29 36 -14
46 18 11 20 10 16 -9z m-2351 -60 c-3 -10 -5 -2 -5 17 0 19 2 27 5 18 2 -10 2
-26 0 -35z m393 30 c-8 -3 -18 -11 -22 -17 -5 -7 -8 -4 -8 7 0 11 7 17 23 16
15 0 17 -2 7 -6z m2004 -14 c-3 -5 -10 -7 -15 -3 -5 3 -7 10 -3 15 3 5 10 7
15 3 5 -3 7 -10 3 -15z m84 4 c-2 -9 -11 -17 -21 -19 -18 -2 -18 -2 0 16 23
24 25 24 21 3z m-2033 -12 c-3 -6 -11 -11 -17 -11 -6 0 -6 6 2 15 14 17 26 13
15 -4z m55 -11 c0 -5 -5 -10 -11 -10 -5 0 -7 5 -4 10 3 6 8 10 11 10 2 0 4 -4
4 -10z m-29 -20 c4 -62 3 -80 -3 -80 -5 0 -8 7 -8 16 0 9 -5 13 -12 9 -7 -4
-5 0 4 8 16 13 16 15 -2 35 -14 14 -16 22 -7 25 22 10 27 7 28 -13z m1891 -23
c5 -26 -18 -77 -34 -77 -6 0 -8 11 -4 30 4 24 2 30 -12 31 -15 0 -15 1 1 8 10
4 18 10 18 14 -4 33 -1 39 13 27 8 -6 16 -21 18 -33z m-2419 -16 c-9 -14 -8
-18 3 -18 8 0 14 9 14 21 0 20 0 20 15 0 8 -10 15 -14 15 -8 0 12 30 15 30 3
0 -4 -4 -19 -10 -33 -6 -17 -6 -26 0 -26 6 0 10 9 10 19 0 10 6 21 13 24 21 8
8 -42 -14 -53 -20 -11 -92 -3 -97 11 -2 5 -7 7 -12 4 -4 -3 -13 2 -20 10 -16
19 -7 19 30 0 34 -18 41 -7 9 13 -16 10 -18 17 -10 25 6 6 11 20 11 31 0 16 3
17 12 8 9 -9 10 -17 1 -31z m-123 8 c0 -5 -4 -9 -10 -9 -5 0 -10 7 -10 16 0 8
5 12 10 9 6 -3 10 -10 10 -16z m224 5 c3 -8 2 -12 -4 -9 -6 3 -10 10 -10 16 0
14 7 11 14 -7z m186 2 c0 -3 -4 -8 -10 -11 -5 -3 -10 -1 -10 4 0 6 5 11 10 11
6 0 10 -2 10 -4z m2180 -10 c0 -3 -4 -8 -10 -11 -5 -3 -10 -1 -10 4 0 6 5 11
10 11 6 0 10 -2 10 -4z m-1775 -68 c-4 -29 -9 -73 -11 -98 -8 -103 -16 -150
-25 -144 -17 10 -9 88 27 272 9 45 17 20 9 -30z m-790 22 c-3 -5 2 -10 11 -10
23 0 13 -9 -16 -15 -28 -5 -33 -10 -37 -36 -2 -12 1 -18 7 -14 6 4 10 -7 10
-25 0 -39 -15 -32 -24 11 -4 21 -10 29 -20 26 -10 -4 -12 0 -9 14 3 11 10 18
16 16 6 -2 21 7 35 20 26 24 37 30 27 13z m425 -24 c0 -3 -4 -8 -10 -11 -5 -3
-10 -1 -10 4 0 6 5 11 10 11 6 0 10 -2 10 -4z m10 -26 c0 -5 -5 -10 -11 -10
-5 0 -7 5 -4 10 3 6 8 10 11 10 2 0 4 -4 4 -10z m-290 -11 c0 -5 -4 -7 -10 -4
-5 3 -10 -1 -10 -10 0 -9 -5 -13 -10 -10 -8 5 -7 11 1 21 14 17 29 18 29 3z
m-92 -16 c-1 -5 4 -21 10 -36 16 -38 15 -67 -2 -67 -8 0 -21 -3 -30 -6 -11 -4
-16 -1 -16 11 0 9 5 13 10 10 15 -9 12 7 -5 31 -8 12 -11 24 -8 28 3 3 1 6 -5
6 -7 0 -12 5 -12 11 0 6 8 8 19 4 11 -3 22 -1 26 5 7 12 16 13 13 3z m79 -42
c15 -20 16 -31 3 -31 -5 0 -10 6 -10 13 0 9 -2 9 -9 -1 -6 -10 -10 -10 -21 3
-7 8 -9 15 -5 15 4 0 1 7 -6 16 -12 15 -11 16 11 9 14 -4 30 -15 37 -24z
m-293 -6 c-4 -8 -8 -15 -10 -15 -2 0 -4 7 -4 15 0 8 4 15 10 15 5 0 7 -7 4
-15z m916 -271 c0 -24 -4 -34 -12 -32 -24 8 -22 68 2 68 5 0 10 -16 10 -36z
m-3 -76 c-3 -7 -5 -2 -5 12 0 14 2 19 5 13 2 -7 2 -19 0 -25z m387 -278 c4
-25 11 -70 16 -100 4 -30 11 -62 14 -70 5 -12 -4 -15 -49 -15 l-55 0 3 100 c3
65 10 114 21 140 l17 40 13 -25 c7 -14 16 -45 20 -70z m161 -560 c18 -20 18
-20 -14 -9 -25 9 -36 8 -56 -5 -31 -20 -33 -3 -3 18 30 21 51 20 73 -4z m-74
-73 c-8 -8 -11 -7 -11 4 0 20 13 34 18 19 3 -7 -1 -17 -7 -23z m9 -21 c0 -3
-4 -8 -10 -11 -5 -3 -10 -1 -10 4 0 6 5 11 10 11 6 0 10 -2 10 -4z m160 -20
c0 -3 -4 -8 -10 -11 -5 -3 -10 -1 -10 4 0 6 5 11 10 11 6 0 10 -2 10 -4z m32
-38 c-7 -7 -12 -8 -12 -2 0 14 12 26 19 19 2 -3 -1 -11 -7 -17z m78 -29 c0 -6
-4 -7 -10 -4 -5 3 -10 11 -10 16 0 6 5 7 10 4 6 -3 10 -11 10 -16z m-103 -21
c-3 -7 -5 -2 -5 12 0 14 2 19 5 13 2 -7 2 -19 0 -25z m-701 13 c-4 -5 0 -12 6
-14 10 -4 9 -8 -2 -16 -34 -24 -54 -6 -24 23 17 18 28 21 20 7z m58 -10 c3 -5
-1 -11 -9 -14 -9 -4 -12 -1 -8 9 6 16 10 17 17 5z m831 -1 c3 -5 -1 -10 -9
-10 -9 0 -16 5 -16 10 0 6 4 10 9 10 6 0 13 -4 16 -10z m-760 -20 c-3 -5 1
-10 10 -10 9 0 13 -5 9 -11 -4 -7 -9 -8 -17 0 -7 7 -16 7 -29 0 -22 -12 -23
-6 -2 15 17 18 39 22 29 6z m65 -5 c0 -8 -7 -15 -15 -15 -16 0 -20 12 -8 23
11 12 23 8 23 -8z"/>
<path d="M663 2866 c3 -8 -2 -16 -13 -19 -13 -3 -17 -1 -13 10 4 10 1 14 -7
11 -23 -7 -22 -26 2 -34 33 -11 41 -11 56 -1 14 11 17 31 2 22 -5 -3 -10 1
-10 9 0 9 -5 16 -11 16 -6 0 -9 -6 -6 -14z"/>
<path d="M808 2843 c-16 -2 -28 -10 -28 -18 0 -11 5 -11 30 1 17 9 30 17 30
20 0 2 -1 3 -2 3 -2 -1 -15 -4 -30 -6z"/>
<path d="M458 2813 c7 -3 16 -2 19 1 4 3 -2 6 -13 5 -11 0 -14 -3 -6 -6z"/>
<path d="M771 2724 c0 -11 3 -14 6 -6 3 7 2 16 -1 19 -3 4 -6 -2 -5 -13z"/>
<path d="M685 2630 c-3 -5 -1 -10 4 -10 6 0 11 5 11 10 0 6 -2 10 -4 10 -3 0
-8 -4 -11 -10z"/>
<path d="M1830 2485 c0 -8 2 -15 4 -15 2 0 6 7 10 15 3 8 1 15 -4 15 -6 0 -10
-7 -10 -15z"/>
<path d="M630 1910 c0 -5 5 -10 11 -10 5 0 7 5 4 10 -3 6 -8 10 -11 10 -2 0
-4 -4 -4 -10z"/>
<path d="M471 1764 c0 -11 3 -14 6 -6 3 7 2 16 -1 19 -3 4 -6 -2 -5 -13z"/>
<path d="M367 1663 c-12 -11 -8 -25 5 -17 8 5 9 2 5 -9 -3 -9 -2 -19 4 -23 16
-9 21 1 13 30 -6 26 -15 32 -27 19z"/>
<path d="M1665 2990 c3 -5 8 -10 11 -10 2 0 4 5 4 10 0 6 -5 10 -11 10 -5 0
-7 -4 -4 -10z"/>
<path d="M201 2924 c0 -11 3 -14 6 -6 3 7 2 16 -1 19 -3 4 -6 -2 -5 -13z"/>
<path d="M76 2695 c-15 -14 -31 -25 -37 -25 -13 0 -11 17 4 23 6 3 2 6 -11 6
-19 1 -21 -2 -12 -18 5 -11 18 -22 27 -24 10 -2 4 -3 -14 -1 -29 2 -32 0 -31
-27 1 -33 15 -37 49 -11 13 10 32 21 42 25 9 3 17 11 17 17 0 5 4 10 9 10 6 0
8 -9 6 -20 -2 -11 1 -20 6 -20 7 0 8 15 5 38 -3 20 -5 40 -6 45 0 15 -28 6
-54 -18z"/>
<path d="M973 2659 c-2 -23 3 -25 10 -4 4 8 3 16 -1 19 -4 3 -9 -4 -9 -15z"/>
<path d="M1108 2638 c5 -22 26 -19 30 5 2 10 -3 15 -16 14 -13 -1 -18 -7 -14
-19z"/>
<path d="M1820 2643 c0 -5 5 -15 10 -23 8 -12 10 -11 10 8 0 12 -4 22 -10 22
-5 0 -10 -3 -10 -7z"/>
<path d="M1091 2614 c0 -11 3 -14 6 -6 3 7 2 16 -1 19 -3 4 -6 -2 -5 -13z"/>
<path d="M352 2533 c3 -35 5 -38 33 -38 28 0 30 3 30 35 0 32 -3 35 -33 38
-33 3 -33 3 -30 -35z"/>
<path d="M1718 2503 c7 -3 16 -2 19 1 4 3 -2 6 -13 5 -11 0 -14 -3 -6 -6z"/>
<path d="M1360 2470 c0 -5 5 -10 10 -10 6 0 10 5 10 10 0 6 -4 10 -10 10 -5 0
-10 -4 -10 -10z"/>
<path d="M300 2407 c0 -8 64 -43 93 -51 42 -10 32 7 -16 26 -66 27 -77 31 -77
25z"/>
<path d="M814 2378 c-5 -8 -2 -9 10 -5 11 4 15 3 11 -4 -4 -6 -14 -8 -22 -5
-14 6 -83 -18 -83 -29 0 -3 9 -1 19 5 11 5 38 10 60 10 34 0 41 3 41 20 0 22
-24 27 -36 8z"/>
<path d="M430 2355 c0 -2 18 -9 41 -15 22 -6 48 -13 57 -16 9 -3 4 2 -12 11
-26 16 -86 29 -86 20z"/>
<path d="M533 2353 c9 -2 23 -2 30 0 6 3 -1 5 -18 5 -16 0 -22 -2 -12 -5z"/>
<path d="M825 2300 c-3 -5 -1 -10 4 -10 6 0 11 5 11 10 0 6 -2 10 -4 10 -3 0
-8 -4 -11 -10z"/>
<path d="M2053 2279 c-1 -10 2 -19 8 -19 11 0 12 27 1 34 -4 2 -9 -4 -9 -15z"/>
<path d="M850 2269 c0 -5 5 -7 10 -4 6 3 10 8 10 11 0 2 -4 4 -10 4 -5 0 -10
-5 -10 -11z"/>
<path d="M815 2260 c-3 -5 1 -10 9 -10 9 0 16 5 16 10 0 6 -4 10 -9 10 -6 0
-13 -4 -16 -10z"/>
<path d="M1970 2235 c0 -9 6 -12 15 -9 8 4 12 10 9 15 -8 14 -24 10 -24 -6z"/>
<path d="M2785 2120 c-3 -5 -1 -10 4 -10 6 0 11 5 11 10 0 6 -2 10 -4 10 -3 0
-8 -4 -11 -10z"/>
<path d="M2731 2084 c0 -11 3 -14 6 -6 3 7 2 16 -1 19 -3 4 -6 -2 -5 -13z"/>
<path d="M2103 2036 c1 -6 -6 -10 -16 -9 -17 1 -16 -1 3 -19 18 -17 24 -18 31
-7 7 11 11 12 17 1 6 -8 9 -3 9 15 0 22 -5 28 -23 29 -13 1 -22 -3 -21 -10z"/>
<path d="M2663 2015 c2 -23 10 -34 33 -46 27 -13 29 -17 16 -25 -9 -6 -12 -13
-6 -17 6 -3 18 8 28 25 18 30 18 30 -3 23 -17 -5 -21 -2 -21 14 0 12 -4 21
-10 21 -5 0 -10 -5 -10 -12 0 -17 -17 2 -23 27 -3 12 -5 8 -4 -10z"/>
<path d="M2630 1996 c0 -13 7 -27 16 -30 12 -5 15 -2 10 10 -3 8 -6 22 -6 30
0 8 -4 14 -10 14 -5 0 -10 -11 -10 -24z"/>
<path d="M2354 1982 c3 -5 2 -12 -3 -14 -4 -1 -5 -12 -1 -23 6 -17 7 -16 12 8
3 15 1 30 -5 34 -5 3 -7 1 -3 -5z"/>
<path d="M2110 1965 c0 -8 4 -15 10 -15 5 0 7 7 4 15 -4 8 -8 15 -10 15 -2 0
-4 -7 -4 -15z"/>
<path d="M2420 1969 c0 -5 5 -7 10 -4 6 3 10 8 10 11 0 2 -4 4 -10 4 -5 0 -10
-5 -10 -11z"/>
<path d="M2307 1964 c-11 -11 -8 -26 3 -19 6 3 10 1 10 -6 0 -7 3 -10 6 -6 3
3 2 13 -3 22 -5 8 -12 12 -16 9z"/>
<path d="M2610 1941 c0 -29 15 -33 18 -5 1 13 -3 24 -8 24 -6 0 -10 -9 -10
-19z"/>
<path d="M2145 1940 c3 -5 8 -10 11 -10 2 0 4 5 4 10 0 6 -5 10 -11 10 -5 0
-7 -4 -4 -10z"/>
<path d="M2387 1929 c4 -13 8 -18 11 -10 2 7 -1 18 -6 23 -8 8 -9 4 -5 -13z"/>
<path d="M2647 1936 c-3 -8 2 -16 13 -19 25 -6 32 2 15 19 -17 18 -22 17 -28
0z"/>
<path d="M2504 1907 c3 -12 5 -24 5 -27 2 -6 21 23 21 31 0 4 -7 9 -15 13 -11
4 -14 0 -11 -17z"/>
<path d="M2754 1916 c6 -16 4 -17 -9 -6 -16 13 -20 3 -9 -24 5 -14 8 -14 21
-1 11 11 12 19 3 32 -11 17 -11 17 -6 -1z"/>
<path d="M2120 1915 c0 -3 10 -16 21 -28 l21 -22 -11 22 c-11 22 -31 40 -31
28z"/>
<path d="M2641 1901 c-17 -11 -17 -85 -1 -127 6 -18 20 -34 32 -37 11 -3 17
-10 13 -16 -3 -6 0 -11 7 -11 10 0 9 -3 -2 -11 -12 -9 -12 -10 4 -5 10 4 26 1
35 -6 13 -10 13 -9 -1 7 -16 17 -16 19 4 37 17 14 19 21 10 30 -9 9 -12 9 -12
-2 0 -9 -9 -5 -26 11 -17 16 -25 19 -22 9 3 -15 -2 -20 -20 -20 -4 0 -8 8 -8
18 -1 9 -4 35 -9 56 -6 28 -5 37 4 32 6 -4 11 -14 11 -22 0 -8 5 -12 10 -9 6
4 7 13 1 23 -4 9 -6 22 -4 29 6 15 -10 24 -26 14z m75 -164 c4 -4 0 -7 -9 -7
-9 0 -18 4 -21 9 -7 10 20 9 30 -2z"/>
<path d="M2086 1873 c-6 -14 -5 -15 5 -6 7 7 10 15 7 18 -3 3 -9 -2 -12 -12z"/>
<path d="M2410 1871 c0 -23 -15 -28 -23 -8 -3 6 -6 2 -6 -9 -1 -34 24 -36 36
-3 7 17 7 31 2 35 -5 3 -9 -4 -9 -15z"/>
<path d="M2476 1875 c4 -8 8 -15 10 -15 2 0 4 7 4 15 0 8 -4 15 -10 15 -5 0
-7 -7 -4 -15z"/>
<path d="M2700 1870 c0 -6 -4 -8 -10 -5 -5 3 -10 1 -10 -4 0 -6 9 -11 20 -11
21 0 27 15 10 25 -5 3 -10 1 -10 -5z"/>
<path d="M2136 1857 c3 -10 9 -15 12 -12 3 3 0 11 -7 18 -10 9 -11 8 -5 -6z"/>
<path d="M2518 1853 c6 -2 9 -10 6 -15 -4 -7 -2 -8 4 -4 18 11 14 26 -5 25
-11 0 -13 -3 -5 -6z"/>
<path d="M2080 1826 c0 -8 4 -17 9 -20 5 -4 7 3 4 14 -6 23 -13 26 -13 6z"/>
<path d="M2110 1829 c0 -5 5 -7 10 -4 6 3 10 8 10 11 0 2 -4 4 -10 4 -5 0 -10
-5 -10 -11z"/>
<path d="M2690 1821 c0 -10 6 -23 13 -29 9 -8 12 -4 13 13 1 13 -4 26 -12 29
-9 3 -14 -1 -14 -13z"/>
<path d="M2170 1814 c0 -8 5 -12 10 -9 6 4 8 11 5 16 -9 14 -15 11 -15 -7z"/>
<path d="M2370 1810 c0 -6 7 -10 15 -10 8 0 15 2 15 4 0 2 -7 6 -15 10 -8 3
-15 1 -15 -4z"/>
<path d="M2485 1810 c3 -5 8 -10 11 -10 2 0 4 5 4 10 0 6 -5 10 -11 10 -5 0
-7 -4 -4 -10z"/>
<path d="M2031 1783 c-1 -37 -8 -41 -26 -16 -12 15 -12 14 -8 -10 4 -21 10
-26 23 -22 18 6 48 -21 36 -32 -3 -3 -6 -1 -6 6 0 7 -4 9 -10 6 -5 -3 -10 -1
-10 5 0 6 -4 9 -9 6 -5 -3 -7 -16 -3 -28 3 -14 2 -19 -6 -14 -7 4 -12 2 -12
-3 0 -6 6 -11 14 -11 10 0 13 -8 10 -25 -5 -27 10 -35 20 -10 3 8 2 15 -2 15
-4 0 -8 10 -9 23 -2 20 -1 21 11 5 7 -10 16 -18 19 -18 4 0 4 8 0 18 -5 14 -3
15 8 5 16 -15 43 -17 34 -3 -4 6 -11 8 -16 5 -8 -5 -14 10 -7 18 2 1 -7 16
-19 32 -11 17 -23 41 -26 55 -4 21 -4 20 -6 -7z"/>
<path d="M2132 1763 c5 -27 10 -56 11 -65 1 -10 8 -18 17 -18 13 0 13 -1 0
-10 -9 -6 -10 -10 -3 -10 6 0 19 -3 29 -7 13 -5 15 -3 8 8 -4 8 -7 22 -5 32 1
10 -6 28 -16 40 -10 11 -12 17 -5 13 6 -4 12 -3 12 3 0 5 -8 15 -17 20 -10 6
-14 11 -10 11 8 0 -17 30 -26 30 -2 0 0 -21 5 -47z"/>
<path d="M2195 1800 c-3 -5 -1 -10 4 -10 6 0 11 5 11 10 0 6 -2 10 -4 10 -3 0
-8 -4 -11 -10z"/>
<path d="M2595 1790 c9 -31 24 -50 38 -50 6 0 3 6 -8 13 -10 8 -15 19 -12 24
4 6 -1 17 -10 24 -14 12 -15 11 -8 -11z"/>
<path d="M2240 1793 c0 -6 -3 -18 -6 -27 -4 -11 -1 -16 10 -16 9 0 16 6 16 13
0 16 -20 46 -20 30z"/>
<path d="M2337 1769 c7 -7 15 -10 18 -7 3 3 -2 9 -12 12 -14 6 -15 5 -6 -5z"/>
<path d="M2510 1771 c0 -5 5 -13 10 -16 6 -3 10 -2 10 4 0 5 -4 13 -10 16 -5
3 -10 2 -10 -4z"/>
<path d="M2095 1760 c3 -5 8 -10 11 -10 2 0 4 5 4 10 0 6 -5 10 -11 10 -5 0
-7 -4 -4 -10z"/>
<path d="M2571 1754 c0 -11 3 -14 6 -6 3 7 2 16 -1 19 -3 4 -6 -2 -5 -13z"/>
<path d="M2208 1735 c2 -14 9 -25 14 -25 6 0 7 7 4 16 -3 9 -6 20 -6 25 0 5
-4 9 -9 9 -4 0 -6 -11 -3 -25z"/>
<path d="M2270 1750 c0 -5 -7 -10 -15 -10 -12 0 -14 -7 -9 -26 4 -17 2 -30 -7
-36 -11 -8 -11 -9 2 -5 9 3 23 0 30 -6 10 -10 11 -9 3 3 -13 18 -16 62 -5 55
5 -2 11 4 14 15 3 11 1 20 -4 20 -5 0 -9 -4 -9 -10z"/>
<path d="M2331 1733 c-1 -12 4 -25 9 -28 12 -7 12 2 0 30 -8 19 -9 19 -9 -2z"/>
<path d="M2410 1739 c0 -5 9 -9 20 -9 11 0 20 2 20 4 0 2 -9 6 -20 9 -11 3
-20 1 -20 -4z"/>
<path d="M2524 1728 c-3 -5 -10 -6 -15 -3 -5 4 -9 2 -9 -2 0 -5 8 -13 18 -19
15 -9 20 -8 28 11 8 17 7 22 -3 22 -8 0 -16 -4 -19 -9z"/>
<path d="M1873 1723 c-18 -6 -16 -30 2 -37 8 -3 15 -12 15 -19 0 -8 7 -20 15
-27 13 -11 15 -8 15 18 0 22 -6 31 -22 36 -22 7 -22 8 -4 15 15 6 16 9 5 13
-8 3 -20 3 -26 1z"/>
<path d="M2293 1715 c-3 -9 -3 -18 -1 -21 3 -3 8 4 11 16 6 23 -1 27 -10 5z"/>
<path d="M2620 1705 c29 -31 31 -31 17 0 -7 14 -18 25 -26 25 -10 0 -7 -8 9
-25z"/>
<path d="M2450 1712 c0 -7 -7 -9 -17 -5 -10 3 -15 3 -12 -1 4 -4 19 -9 35 -12
16 -2 25 -1 19 3 -5 5 -13 12 -17 17 -5 5 -8 4 -8 -2z"/>
<path d="M2575 1700 c4 -14 14 -30 22 -37 9 -7 12 -17 7 -24 -5 -9 -2 -10 10
-6 14 5 17 3 13 -8 -4 -8 5 -23 21 -35 36 -29 39 -10 5 42 -31 48 -53 73 -53
62 0 -4 -7 1 -16 12 -14 18 -15 18 -9 -6z"/>
<path d="M2399 1698 c-1 -7 0 -17 1 -23 1 -5 4 -24 5 -42 2 -18 6 -37 10 -43
3 -5 -3 -10 -14 -10 -10 0 -21 6 -24 13 -3 6 -5 2 -4 -9 1 -28 33 -49 41 -28
3 8 11 12 17 9 6 -5 4 -12 -8 -21 -17 -13 -17 -15 1 -29 20 -15 20 -15 0 -15
-11 0 -25 4 -32 10 -7 5 -4 1 5 -10 10 -11 29 -21 42 -22 23 -3 25 1 26 36 1
46 17 57 33 24 10 -22 11 -21 8 7 -2 17 -8 40 -14 52 -7 12 -12 33 -12 47 0
14 -5 28 -12 32 -8 5 -9 -2 -4 -27 4 -19 8 -38 10 -44 1 -5 5 -16 9 -22 9 -15
-2 -17 -22 -4 -7 5 -11 13 -7 19 3 5 -1 13 -10 16 -11 4 -15 15 -12 34 2 17
-3 34 -14 45 -12 11 -18 13 -19 5z"/>
<path d="M2910 1686 c0 -9 5 -16 10 -16 6 0 10 4 10 9 0 6 -4 13 -10 16 -5 3
-10 -1 -10 -9z"/>
<path d="M2211 1674 c0 -11 3 -14 6 -6 3 7 2 16 -1 19 -3 4 -6 -2 -5 -13z"/>
<path d="M836 1672 c-3 -5 1 -9 9 -9 8 0 15 4 15 9 0 4 -4 8 -9 8 -6 0 -12 -4
-15 -8z"/>
<path d="M2750 1676 c0 -2 7 -6 15 -10 8 -3 15 -1 15 4 0 6 -7 10 -15 10 -8 0
-15 -2 -15 -4z"/>
<path d="M3 1620 c0 -30 2 -43 4 -27 2 15 2 39 0 55 -2 15 -4 2 -4 -28z"/>
<path d="M1785 1660 c-3 -5 -1 -10 4 -10 6 0 11 5 11 10 0 6 -2 10 -4 10 -3 0
-8 -4 -11 -10z"/>
<path d="M2330 1661 c0 -6 4 -13 10 -16 6 -3 7 1 4 9 -7 18 -14 21 -14 7z"/>
<path d="M2559 1665 c-1 -3 -1 -14 -1 -25 0 -34 2 -40 12 -40 13 0 13 37 0 45
-6 4 -8 11 -5 16 4 5 4 9 1 9 -3 0 -6 -2 -7 -5z"/>
<path d="M2684 1644 c7 -35 37 -57 50 -35 3 5 -5 12 -19 15 -15 4 -22 11 -19
20 3 8 0 17 -6 21 -7 4 -9 -2 -6 -21z"/>
<path d="M2864 1655 c3 -11 1 -27 -4 -35 -7 -12 -10 -12 -10 -1 0 7 -6 11 -14
8 -7 -3 -24 2 -37 10 -12 9 -19 11 -15 5 4 -7 2 -12 -4 -12 -6 0 -8 -4 -5 -10
3 -5 19 -8 35 -6 16 2 31 -2 33 -8 7 -17 -19 -50 -28 -37 -4 8 -12 8 -26 1
-17 -10 -18 -13 -4 -34 8 -12 12 -26 8 -29 -3 -4 -1 -7 5 -7 7 0 12 -6 12 -14
0 -8 -6 -13 -14 -12 -8 0 -14 -3 -13 -9 1 -5 5 -9 10 -7 4 1 7 -5 7 -14 0 -14
3 -14 15 -4 15 12 18 70 3 70 -4 0 -5 6 -2 14 3 7 13 13 22 13 36 0 41 4 48
38 8 46 21 53 16 9 -5 -39 4 -45 18 -10 11 31 2 69 -16 62 -7 -3 -21 5 -30 17
-14 20 -15 20 -10 2z m13 -57 c-3 -8 -6 -5 -6 6 -1 11 2 17 5 13 3 -3 4 -12 1
-19z m-24 -33 c-3 -9 -8 -14 -10 -11 -3 3 -2 9 2 15 9 16 15 13 8 -4z"/>
<path d="M64 1648 c-4 -6 -9 -30 -10 -52 -1 -23 -3 -43 -4 -46 -1 -3 -2 -8 -1
-12 0 -5 -5 -8 -11 -8 -9 0 -8 -3 2 -10 16 -10 36 13 25 30 -3 6 1 7 9 4 10
-4 16 -1 16 10 0 10 -5 13 -16 9 -12 -4 -15 -2 -12 8 3 8 11 13 17 12 6 -2 11
2 11 7 0 6 -6 10 -12 10 -9 0 -10 3 -2 8 12 8 15 42 3 42 -4 0 -11 -5 -15 -12z"/>
<path d="M574 1645 c-18 -14 -17 -14 15 -15 29 0 32 2 21 15 -15 18 -12 18
-36 0z"/>
<path d="M1823 1612 c0 -40 4 -52 14 -48 7 3 13 0 14 -7 0 -7 4 -2 10 11 5 13
13 20 19 17 5 -3 10 -2 10 4 0 6 7 8 16 4 14 -5 15 -3 5 15 -14 26 -34 25 -41
-2 -3 -11 -12 -22 -19 -24 -10 -3 -12 1 -9 15 3 11 0 31 -7 44 -12 21 -13 19
-12 -29z"/>
<path d="M2094 1643 c2 -13 0 -23 -6 -23 -5 0 -6 -6 -1 -12 8 -14 10 -19 12
-44 1 -11 7 -13 22 -9 19 6 21 4 16 -14 -3 -11 -1 -21 4 -21 15 0 10 48 -7 65
-9 9 -16 27 -16 40 0 14 -4 22 -8 20 -5 -3 -11 1 -14 7 -4 7 -4 3 -2 -9z"/>
<path d="M856 1641 c-3 -5 1 -11 9 -14 9 -4 12 -1 8 9 -6 16 -10 17 -17 5z"/>
<path d="M895 1630 c4 -14 11 -26 16 -28 4 -2 6 -11 3 -20 -5 -15 -4 -15 6 1
9 14 7 23 -11 45 l-21 27 7 -25z"/>
<path d="M2150 1640 c0 -5 5 -10 11 -10 5 0 7 5 4 10 -3 6 -8 10 -11 10 -2 0
-4 -4 -4 -10z"/>
<path d="M2242 1630 c-1 -22 14 -72 18 -60 7 23 7 40 0 40 -5 0 -11 10 -13 23
-4 20 -4 20 -5 -3z"/>
<path d="M2752 1630 c0 -14 2 -19 5 -12 2 6 2 18 0 25 -3 6 -5 1 -5 -13z"/>
<path d="M257 1619 c-3 -12 -10 -18 -15 -15 -6 3 -12 -1 -16 -9 -3 -8 -1 -15
4 -15 6 0 10 -8 11 -17 0 -14 2 -13 9 5 5 12 16 22 25 22 9 0 15 -9 16 -22 1
-17 2 -19 6 -5 2 9 9 17 14 17 5 0 9 5 9 10 0 6 -3 9 -7 9 -21 -3 -33 2 -33
15 0 24 -17 27 -23 5z"/>
<path d="M1786 1632 c-3 -6 -1 -14 5 -17 14 -9 20 -2 10 14 -6 8 -11 9 -15 3z"/>
<path d="M2050 1623 c0 -6 8 -17 18 -24 16 -13 16 -13 2 6 -8 11 -16 22 -17
24 -2 2 -3 0 -3 -6z"/>
<path d="M2290 1624 c0 -3 7 -12 15 -20 8 -8 12 -21 9 -29 -6 -15 22 -33 33
-22 3 4 7 23 9 44 2 27 0 33 -7 23 -8 -12 -12 -12 -16 -2 -5 12 -43 18 -43 6z"/>
<path d="M2960 1610 c0 -5 6 -7 14 -4 10 4 16 -3 19 -23 4 -27 4 -27 6 5 1 26
-3 32 -19 32 -11 0 -20 -4 -20 -10z"/>
<path d="M2510 1585 c0 -8 5 -15 10 -15 6 0 10 7 10 15 0 8 -4 15 -10 15 -5 0
-10 -7 -10 -15z"/>
<path d="M2698 1575 c2 -14 11 -25 18 -25 12 0 11 5 -2 25 -9 14 -17 25 -19
25 -1 0 0 -11 3 -25z"/>
<path d="M2756 1585 c4 -8 10 -15 15 -15 5 0 9 7 9 15 0 8 -7 15 -15 15 -9 0
-12 -6 -9 -15z"/>
<path d="M2820 1589 c0 -5 5 -7 10 -4 6 3 10 8 10 11 0 2 -4 4 -10 4 -5 0 -10
-5 -10 -11z"/>
<path d="M2010 1578 c0 -9 5 -20 10 -23 13 -8 13 5 0 25 -8 13 -10 13 -10 -2z"/>
<path d="M2172 1581 c-11 -7 -11 -9 0 -14 9 -3 15 1 15 9 0 8 -1 14 -1 14 -1
0 -7 -4 -14 -9z"/>
<path d="M2573 1574 c-17 -17 -16 -34 2 -58 16 -21 20 -10 6 13 -6 9 -6 22 1
34 12 23 7 30 -9 11z"/>
<path d="M2630 1581 c0 -5 7 -15 17 -22 15 -13 15 -12 4 9 -12 23 -21 28 -21
13z"/>
<path d="M25 1570 c3 -5 8 -10 11 -10 2 0 4 5 4 10 0 6 -5 10 -11 10 -5 0 -7
-4 -4 -10z"/>
<path d="M870 1571 c0 -5 7 -14 15 -21 12 -10 15 -10 15 3 0 8 -7 17 -15 21
-8 3 -15 2 -15 -3z"/>
<path d="M2270 1561 c-7 -15 -6 -24 6 -36 20 -20 29 -13 16 12 -5 10 -7 24 -5
31 7 19 -5 14 -17 -7z"/>
<path d="M516 1561 c-5 -8 -4 -16 3 -21 7 -4 11 -11 10 -16 -1 -5 0 -12 1 -16
1 -5 3 -11 4 -15 9 -38 20 -54 33 -49 11 4 13 1 8 -14 -4 -11 -2 -20 4 -20 6
0 11 5 11 11 0 5 5 7 11 3 7 -4 9 0 5 14 -6 17 -3 20 19 17 16 -1 29 3 32 11
3 8 9 11 15 8 5 -3 7 -13 4 -21 -3 -8 -1 -11 4 -8 6 3 10 -1 10 -10 0 -17 -39
-18 -51 -2 -3 5 -9 1 -13 -8 -5 -13 -2 -16 12 -13 11 3 27 1 36 -4 11 -6 16
-5 16 3 0 6 6 9 14 6 8 -3 13 1 12 11 0 9 6 18 14 18 8 1 21 2 28 3 6 0 12 6
12 12 0 8 -6 7 -16 -2 -15 -12 -16 -11 -10 7 5 16 -1 30 -25 53 -17 18 -34 29
-38 25 -3 -4 0 -9 7 -11 6 -3 9 -10 6 -15 -4 -7 -2 -8 4 -4 18 11 36 -32 21
-50 -10 -13 -14 -12 -31 3 -10 9 -17 22 -14 28 2 7 0 18 -6 26 -8 11 -9 10 -4
-3 3 -10 1 -18 -5 -18 -6 0 -8 -4 -5 -9 9 -14 -26 -23 -38 -10 -8 9 -7 10 6 6
18 -6 33 18 18 28 -6 4 -10 2 -10 -3 0 -18 -31 -22 -46 -7 -9 8 -21 15 -28 15
-7 0 -17 12 -22 28 -7 20 -12 24 -18 13z"/>
<path d="M810 1561 c0 -17 29 -85 35 -80 5 5 -18 75 -28 85 -4 4 -7 2 -7 -5z"/>
<path d="M2597 1564 c-3 -6 3 -18 14 -27 19 -17 27 -53 9 -42 -6 4 -5 -4 1
-19 7 -14 16 -23 20 -20 5 3 9 -1 9 -9 0 -8 8 -21 18 -28 15 -13 16 -12 3 3
-9 13 -11 25 -3 45 9 26 0 73 -13 73 -4 0 -3 -4 0 -10 3 -6 -1 -7 -9 -4 -9 3
-13 10 -10 15 3 5 -1 9 -10 9 -8 0 -16 5 -18 12 -3 8 -7 8 -11 2z m58 -75
c-10 -15 -25 -10 -19 6 4 8 10 12 15 9 5 -3 7 -10 4 -15z"/>
<path d="M2230 1550 c-13 -8 -13 -10 2 -10 9 0 18 -6 21 -12 3 -7 4 -3 4 10
-1 24 -5 26 -27 12z"/>
<path d="M2753 1537 c1 -15 8 -29 15 -32 15 -6 15 4 -2 35 l-14 25 1 -28z"/>
<path d="M231 1530 c-1 -8 -4 -26 -7 -40 -4 -18 -3 -21 4 -11 7 10 11 10 17 1
6 -9 10 -9 16 1 13 20 11 29 -5 29 -8 0 -17 8 -19 18 -3 12 -5 13 -6 2z"/>
<path d="M2330 1526 c0 -8 7 -16 15 -20 13 -4 14 -2 5 14 -13 23 -20 26 -20 6z"/>
<path d="M130 1520 c0 -5 5 -10 11 -10 5 0 8 -4 5 -9 -3 -5 1 -14 9 -21 13
-11 13 -8 4 19 -10 29 -29 43 -29 21z"/>
<path d="M190 1520 c0 -5 5 -10 10 -10 6 0 10 5 10 10 0 6 -4 10 -10 10 -5 0
-10 -4 -10 -10z"/>
<path d="M2220 1498 c0 -9 5 -20 10 -23 13 -8 13 5 0 25 -8 13 -10 13 -10 -2z"/>
<path d="M40 1491 c0 -5 5 -13 10 -16 6 -3 10 -2 10 4 0 5 -4 13 -10 16 -5 3
-10 2 -10 -4z"/>
<path d="M280 1486 c0 -8 4 -17 9 -20 5 -4 7 3 4 14 -6 23 -13 26 -13 6z"/>
<path d="M696 1491 c-3 -5 1 -11 9 -14 9 -4 12 -1 8 9 -6 16 -10 17 -17 5z"/>
<path d="M2187 1479 c4 -13 8 -18 11 -10 2 7 -1 18 -6 23 -8 8 -9 4 -5 -13z"/>
<path d="M2280 1490 c0 -5 5 -10 11 -10 5 0 7 5 4 10 -3 6 -8 10 -11 10 -2 0
-4 -4 -4 -10z"/>
<path d="M2499 1483 c-34 -14 -40 -27 -6 -14 14 6 30 6 38 0 10 -6 8 -9 -11
-9 -24 -1 -24 -1 -6 -15 11 -8 29 -12 39 -9 14 4 17 3 12 -7 -6 -9 -3 -10 11
-5 10 4 15 4 11 0 -4 -4 -2 -13 4 -20 8 -10 5 -11 -12 -7 l-22 6 19 -26 c25
-34 30 -34 39 6 4 17 9 26 12 20 2 -7 12 -13 20 -13 9 0 13 -6 10 -14 -8 -21
13 -35 46 -31 21 3 27 0 23 -11 -3 -8 1 -14 9 -14 8 0 15 4 15 8 0 16 -35 40
-53 37 -12 -2 -17 1 -13 10 4 12 -20 30 -36 27 -5 -1 -8 5 -8 14 0 10 -5 14
-16 10 -8 -3 -13 -2 -10 3 3 5 -6 12 -20 15 -17 5 -24 12 -20 21 3 8 1 15 -5
15 -6 0 -8 4 -5 8 7 12 -32 9 -65 -5z"/>
<path d="M2730 1488 c0 -4 4 -8 9 -8 6 0 12 4 15 8 3 5 -1 9 -9 9 -8 0 -15 -4
-15 -9z"/>
<path d="M2930 1487 c0 -8 7 -17 15 -21 25 -9 17 -23 -14 -23 -19 0 -27 5 -24
13 2 6 0 15 -6 18 -15 9 -23 -33 -13 -68 10 -37 38 -51 29 -14 -5 19 -2 24 12
24 14 0 19 -7 18 -25 -1 -13 3 -26 10 -28 7 -3 10 8 8 31 -3 33 -2 35 16 26
32 -18 23 11 -16 49 -23 23 -35 29 -35 18z"/>
<path d="M320 1475 c0 -8 5 -15 10 -15 6 0 10 -7 10 -15 0 -9 6 -12 15 -9 13
5 13 8 0 21 -8 8 -15 19 -15 24 0 5 -4 9 -10 9 -5 0 -10 -7 -10 -15z"/>
<path d="M2367 1465 c3 -9 13 -15 22 -13 9 1 22 -1 29 -5 7 -5 12 -4 12 2 0
11 -13 15 -37 12 -7 -1 -13 3 -13 9 0 5 -4 10 -10 10 -5 0 -7 -7 -3 -15z"/>
<path d="M2590 1471 c0 -6 5 -13 10 -16 6 -3 10 1 10 9 0 9 -4 16 -10 16 -5 0
-10 -4 -10 -9z"/>
<path d="M2706 1471 c5 -10 3 -13 -9 -8 -11 4 -14 2 -10 -9 3 -8 11 -13 19
-10 7 3 15 0 18 -7 2 -7 5 -7 5 -1 1 5 -6 19 -15 30 -8 10 -12 13 -8 5z"/>
<path d="M2980 1471 c0 -5 5 -13 10 -16 6 -3 10 -2 10 4 0 5 -4 13 -10 16 -5
3 -10 2 -10 -4z"/>
<path d="M441 1454 c0 -11 3 -14 6 -6 3 7 2 16 -1 19 -3 4 -6 -2 -5 -13z"/>
<path d="M520 1455 c0 -8 4 -15 10 -15 5 0 7 7 4 15 -4 8 -8 15 -10 15 -2 0
-4 -7 -4 -15z"/>
<path d="M2326 1455 c4 -8 11 -15 16 -15 6 0 5 6 -2 15 -7 8 -14 15 -16 15 -2
0 -1 -7 2 -15z"/>
<path d="M70 1441 c0 -12 5 -21 10 -21 6 0 10 6 10 14 0 8 -4 18 -10 21 -5 3
-10 -3 -10 -14z"/>
<path d="M227 1447 c-3 -8 -2 -20 3 -26 5 -9 8 -4 8 13 0 29 -3 32 -11 13z"/>
<path d="M2440 1452 c0 -4 9 -15 20 -25 14 -11 20 -13 20 -4 0 7 -9 18 -20 25
-11 7 -20 9 -20 4z"/>
<path d="M2745 1450 c3 -5 8 -20 10 -32 3 -12 11 -26 20 -31 10 -5 13 -16 9
-34 -5 -18 -3 -24 5 -19 6 4 11 1 11 -7 0 -10 7 -13 19 -10 11 3 18 13 17 26
-1 12 2 28 7 34 5 7 6 24 3 38 -6 22 -9 24 -26 15 -16 -9 -25 -7 -42 10 -23
21 -44 27 -33 10z m69 -75 c-4 -8 -8 -15 -10 -15 -2 0 -4 7 -4 15 0 8 4 15 10
15 5 0 7 -7 4 -15z"/>
<path d="M101 1434 c0 -11 3 -14 6 -6 3 7 2 16 -1 19 -3 4 -6 -2 -5 -13z"/>
<path d="M142 1430 c0 -14 2 -19 5 -12 2 6 2 18 0 25 -3 6 -5 1 -5 -13z"/>
<path d="M271 1434 c0 -11 3 -14 6 -6 3 7 2 16 -1 19 -3 4 -6 -2 -5 -13z"/>
<path d="M2140 1443 c0 -7 -7 -10 -17 -7 -15 5 -15 4 -3 -4 8 -6 18 -8 22 -6
4 3 8 0 8 -7 0 -7 3 -10 6 -6 3 3 1 14 -5 24 -6 10 -11 13 -11 6z"/>
<path d="M470 1430 c0 -5 5 -10 11 -10 5 0 7 5 4 10 -3 6 -8 10 -11 10 -2 0
-4 -4 -4 -10z"/>
<path d="M920 1434 c0 -17 17 -36 24 -26 3 5 -1 15 -9 22 -8 7 -15 9 -15 4z"/>
<path d="M2696 1415 c4 -8 11 -15 16 -15 6 0 5 6 -2 15 -7 8 -14 15 -16 15 -2
0 -1 -7 2 -15z"/>
<path d="M2192 1411 c4 -13 18 -16 19 -4 0 4 -5 9 -11 12 -7 2 -11 -2 -8 -8z"/>
<path d="M2370 1392 c0 -17 5 -34 10 -37 7 -4 9 5 5 26 -8 44 -15 50 -15 11z"/>
<path d="M81 1394 c0 -11 3 -14 6 -6 3 7 2 16 -1 19 -3 4 -6 -2 -5 -13z"/>
<path d="M592 1401 c-19 -12 17 -40 50 -38 16 1 28 4 28 7 -1 24 -55 45 -78
31z"/>
<path d="M2342 1395 c-11 -12 -10 -15 3 -15 8 0 15 7 15 15 0 18 -2 18 -18 0z"/>
<path d="M2448 1398 c8 -10 22 -20 32 -23 13 -4 17 -12 13 -23 -5 -13 -3 -14
6 -6 10 9 10 17 2 32 -6 10 -7 23 -3 28 4 5 -1 2 -10 -5 -15 -11 -21 -11 -35
0 -16 13 -17 12 -5 -3z"/>
<path d="M710 1391 c0 -6 4 -13 10 -16 6 -3 7 1 4 9 -7 18 -14 21 -14 7z"/>
<path d="M2070 1393 c0 -6 8 -17 18 -24 16 -13 16 -13 2 6 -8 11 -16 22 -17
24 -2 2 -3 0 -3 -6z"/>
<path d="M2510 1396 c0 -2 9 -6 20 -9 11 -3 18 -1 14 4 -5 9 -34 13 -34 5z"/>
<path d="M2981 1384 c0 -11 3 -14 6 -6 3 7 2 16 -1 19 -3 4 -6 -2 -5 -13z"/>
<path d="M1820 1375 c0 -8 4 -15 8 -15 5 0 9 7 9 15 0 8 -4 15 -9 15 -4 0 -8
-7 -8 -15z"/>
<path d="M2150 1386 c0 -2 7 -6 15 -10 8 -3 15 -1 15 4 0 6 -7 10 -15 10 -8 0
-15 -2 -15 -4z"/>
<path d="M2400 1380 c0 -5 5 -10 11 -10 5 0 7 5 4 10 -3 6 -8 10 -11 10 -2 0
-4 -4 -4 -10z"/>
<path d="M2630 1350 c0 -16 5 -30 10 -30 6 0 9 14 8 30 -1 17 -6 30 -10 30 -4
0 -8 -13 -8 -30z"/>
<path d="M75 1348 c4 -13 11 -27 16 -32 5 -6 9 -15 9 -20 0 -6 -5 -4 -11 4 -9
12 -10 10 -6 -9 4 -17 1 -25 -14 -28 -13 -4 -16 -8 -10 -13 20 -12 1 -39 -26
-37 -32 2 -42 -19 -14 -28 12 -3 21 -11 21 -18 0 -8 -3 -8 -12 1 -7 7 -15 12
-18 12 -3 0 -7 -56 -8 -125 -2 -109 0 -125 14 -125 10 0 14 -6 11 -14 -4 -10
0 -12 16 -8 12 3 25 10 28 15 4 5 12 6 19 2 19 -12 -28 -38 -61 -33 l-29 5 1
-53 c1 -29 6 -51 11 -48 4 3 8 -1 8 -8 1 -10 4 -9 13 2 7 8 23 16 37 17 22 3
20 0 -13 -19 -27 -16 -37 -28 -35 -43 2 -11 -4 -26 -12 -33 -11 -10 -12 -15
-3 -18 7 -3 13 -10 13 -15 0 -6 -4 -7 -10 -4 -5 3 -10 0 -10 -8 0 -17 27 -31
53 -28 11 2 21 -5 24 -18 6 -23 14 -26 29 -11 7 7 24 3 51 -10 23 -11 49 -17
58 -14 9 4 24 -1 34 -10 19 -18 51 -12 51 9 0 7 -9 15 -21 18 -12 3 -18 10
-14 17 4 6 13 9 20 6 7 -2 21 2 32 10 14 11 15 13 2 8 -10 -3 -20 -1 -23 4 -3
6 -15 8 -26 5 -11 -3 -20 0 -20 6 0 6 5 11 12 11 6 0 9 2 7 5 -3 2 -23 -2 -44
-10 -38 -13 -39 -13 -12 -17 15 -1 26 -6 25 -9 -2 -4 4 -15 13 -25 34 -39 33
-48 -3 -26 -19 12 -47 22 -62 22 -21 0 -26 5 -26 24 0 16 7 27 20 31 25 8 26
25 1 18 -26 -7 -32 8 -15 37 9 18 13 20 14 8 0 -13 12 -17 58 -20 61 -4 89 6
98 35 4 12 12 16 24 12 10 -3 21 -1 25 5 4 6 -4 10 -18 10 -14 0 -28 7 -31 16
-3 9 -13 14 -20 11 -8 -3 -16 -2 -18 2 -2 5 -14 12 -26 16 -22 6 -23 5 -13
-14 7 -12 9 -21 7 -21 -3 0 -13 14 -21 31 -10 18 -22 29 -30 26 -7 -3 -15 3
-18 15 -3 11 -10 17 -16 14 -5 -4 -12 -2 -16 3 -3 6 6 8 22 5 79 -12 93 -16
93 -23 0 -9 48 -6 57 3 3 3 0 14 -8 23 -13 17 -13 17 7 0 11 -9 24 -14 28 -10
4 4 11 1 16 -7 10 -15 81 -22 101 -9 11 7 10 9 -4 9 -32 0 -8 18 33 25 22 4
40 11 40 16 0 5 21 9 48 10 46 1 47 1 14 10 -18 5 -30 14 -27 19 4 6 -5 10
-19 10 -14 0 -26 4 -26 8 0 5 8 9 18 9 58 -1 92 4 92 13 0 6 -3 9 -7 9 -21 -3
-53 2 -53 9 0 9 52 33 94 43 24 5 26 7 9 8 -14 1 -23 7 -23 18 0 9 -3 13 -7
10 -3 -4 -14 0 -23 8 -15 14 -18 14 -30 0 -7 -8 -9 -15 -4 -15 10 -1 -54 -31
-72 -35 -6 -2 -17 1 -23 5 -8 4 4 10 28 14 23 3 41 11 41 16 0 6 -4 10 -10 10
-5 0 -10 7 -10 16 0 8 4 13 9 9 5 -3 13 0 17 7 4 7 4 10 -1 6 -4 -4 -16 -3
-25 2 -13 7 -20 6 -24 -5 -10 -27 -23 -16 -18 15 5 34 -13 41 -23 9 -7 -21
-26 -22 -33 -1 -2 7 4 12 14 12 16 0 16 1 1 18 -10 10 -14 22 -10 27 5 4 2 5
-4 1 -7 -4 -13 -16 -13 -26 0 -10 -4 -22 -10 -25 -6 -3 -7 1 -4 9 13 34 -8 14
-25 -24 -16 -36 -18 -38 -32 -22 -29 33 -28 48 2 68 16 10 29 26 29 33 0 11
-3 12 -11 4 -6 -6 -18 -9 -27 -6 -10 5 -13 2 -8 -6 6 -8 2 -11 -10 -9 -23 4
-33 -40 -12 -53 11 -7 11 -9 -1 -9 -8 0 -11 -6 -7 -16 3 -9 2 -12 -5 -9 -6 4
-17 -1 -24 -11 -13 -18 -14 -17 -15 8 0 19 4 26 14 22 8 -3 17 -1 21 5 3 6 1
11 -6 11 -7 0 -9 10 -7 25 4 17 1 25 -9 25 -10 0 -12 -7 -7 -26 5 -19 4 -25
-5 -20 -6 4 -11 14 -11 22 0 8 -4 13 -10 9 -5 -3 -7 -12 -3 -21 3 -8 2 -14 -3
-12 -5 1 -22 -6 -39 -16 -16 -9 -22 -15 -12 -12 9 3 17 1 17 -4 0 -9 -8 -12
-26 -9 -9 1 -24 -23 -24 -40 0 -9 7 -11 25 -7 24 6 28 3 28 -29 0 -35 -4 -46
-12 -41 -5 3 -14 -1 -20 -8 -10 -11 -8 -17 6 -25 10 -6 13 -11 8 -11 -6 0 -16
5 -23 12 -6 6 -15 8 -19 3 -5 -4 -2 -10 5 -12 15 -6 16 -29 0 -39 -7 -5 -8 -3
-4 5 5 7 0 21 -10 32 -13 14 -14 19 -4 19 11 0 11 3 2 12 -7 7 -12 19 -12 28
0 13 2 13 10 0 12 -19 62 -2 66 23 2 13 -2 17 -12 13 -25 -9 -42 4 -48 40 -7
33 -28 45 -41 24 -3 -5 -13 -10 -21 -10 -8 0 -12 5 -9 10 4 6 11 7 17 4 17
-11 -3 19 -23 33 -20 15 -23 67 -3 59 14 -6 29 46 19 66 -4 7 1 4 9 -6 9 -11
16 -34 16 -52 0 -18 5 -36 11 -39 7 -5 8 5 3 30 -5 30 -4 36 6 30 9 -6 11 -4
4 6 -4 8 -7 24 -5 37 1 12 -2 22 -8 22 -15 0 -14 30 2 30 6 0 4 5 -5 11 -10 5
-18 17 -18 26 0 13 -3 13 -15 3 -10 -9 -15 -9 -15 -1 0 6 -5 11 -11 11 -6 0
-8 -9 -4 -22z m-11 -164 c3 -8 2 -12 -4 -9 -6 3 -10 10 -10 16 0 14 7 11 14
-7z m212 -92 c-11 -10 -15 4 -8 28 l7 25 3 -23 c2 -13 1 -26 -2 -30z m-116
-46 c0 -18 -1 -18 -19 -2 -16 14 -17 21 -8 31 14 15 27 1 27 -29z m225 24 c3
-5 -1 -10 -10 -10 -9 0 -13 5 -10 10 3 6 8 10 10 10 2 0 7 -4 10 -10z m-325
-10 c0 -5 -5 -10 -11 -10 -5 0 -7 5 -4 10 3 6 8 10 11 10 2 0 4 -4 4 -10z
m130 -40 c0 -5 -2 -10 -4 -10 -3 0 -8 5 -11 10 -3 6 -1 10 4 10 6 0 11 -4 11
-10z m202 -52 c-7 -7 -12 -8 -12 -2 0 14 12 26 19 19 2 -3 -1 -11 -7 -17z
m-301 -9 c-24 -11 -46 -18 -48 -16 -6 6 60 37 77 36 8 0 -5 -9 -29 -20z m362
-4 c-3 -9 -8 -14 -10 -11 -3 3 -2 9 2 15 9 16 15 13 8 -4z m-226 -31 c-3 -3
-12 -4 -19 -1 -8 3 -5 6 6 6 11 1 17 -2 13 -5z m60 -9 c0 -18 -16 -19 -37 -4
-13 9 -12 10 2 5 10 -3 20 -1 23 4 9 14 12 12 12 -5z m-127 1 c0 -3 -4 -8 -10
-11 -5 -3 -10 -1 -10 4 0 6 5 11 10 11 6 0 10 -2 10 -4z m350 -8 c0 -11 -28
-10 -35 1 -3 6 4 9 15 8 11 -1 20 -5 20 -9z m-418 -44 c-6 -11 -11 -13 -16 -5
-4 6 -2 11 3 11 6 0 11 8 12 18 0 9 3 12 5 5 3 -7 1 -20 -4 -29z m193 16 c3
-5 -1 -10 -9 -10 -9 0 -16 5 -16 10 0 6 4 10 9 10 6 0 13 -4 16 -10z m125 -20
c0 -5 -2 -10 -4 -10 -3 0 -8 5 -11 10 -3 6 -1 10 4 10 6 0 11 -4 11 -10z
m-345 -98 c-8 -8 34 -34 45 -27 6 3 10 1 10 -4 0 -15 -16 -14 -56 5 -34 16
-38 31 -9 31 8 0 13 -3 10 -5z m195 -27 c-7 -8 -20 -15 -29 -15 -11 1 -8 5 9
15 32 18 35 18 20 0z m-144 -40 c-3 -8 -1 -15 3 -15 5 0 11 -7 15 -15 4 -10 0
-14 -14 -12 -11 2 -23 6 -26 10 -13 12 -44 7 -50 -8 -4 -8 -10 -12 -16 -9 -14
9 32 44 59 44 12 0 23 5 23 10 0 6 3 10 6 10 3 0 4 -7 0 -15z"/>
<path d="M575 1360 c4 -6 11 -8 16 -5 14 9 11 15 -7 15 -8 0 -12 -5 -9 -10z"/>
<path d="M2534 1338 c1 -18 5 -36 10 -39 11 -9 -31 -32 -44 -24 -6 3 -10 1
-10 -4 0 -6 -5 -11 -11 -11 -8 0 -8 4 -1 13 5 7 6 21 1 32 -7 19 -8 19 -8 -2
-1 -12 -4 -29 -7 -38 -5 -13 -2 -16 17 -14 13 2 30 0 36 -4 9 -6 11 -3 6 10
-6 16 -5 16 10 4 13 -10 17 -10 17 -1 0 10 3 10 15 0 8 -7 12 -17 8 -23 -3 -6
-1 -7 5 -3 14 8 16 36 3 36 -13 0 -22 43 -11 54 13 13 13 49 0 41 -5 -3 -7
-12 -4 -19 3 -8 0 -17 -7 -22 -9 -5 -10 -2 -6 9 3 8 0 20 -7 26 -10 9 -13 4
-12 -21z"/>
<path d="M285 1350 c4 -6 11 -8 16 -5 14 9 11 15 -7 15 -8 0 -12 -5 -9 -10z"/>
<path d="M676 1352 c-3 -5 1 -9 9 -9 8 0 12 4 9 9 -3 4 -7 8 -9 8 -2 0 -6 -4
-9 -8z"/>
<path d="M2190 1339 c0 -5 5 -7 10 -4 6 3 10 8 10 11 0 2 -4 4 -10 4 -5 0 -10
-5 -10 -11z"/>
<path d="M2330 1339 c0 -5 5 -7 10 -4 6 3 10 8 10 11 0 2 -4 4 -10 4 -5 0 -10
-5 -10 -11z"/>
<path d="M237 1323 c-13 -12 -7 -22 12 -20 15 1 17 4 9 14 -12 15 -13 15 -21
6z"/>
<path d="M541 1314 c0 -11 3 -14 6 -6 3 7 2 16 -1 19 -3 4 -6 -2 -5 -13z"/>
<path d="M2875 1267 c5 -69 10 -87 24 -87 8 0 4 54 -6 80 -4 8 -5 21 -4 28 1
6 -3 20 -8 30 -7 12 -9 -3 -6 -51z"/>
<path d="M10 1310 c0 -5 5 -10 10 -10 6 0 10 5 10 10 0 6 -4 10 -10 10 -5 0
-10 -4 -10 -10z"/>
<path d="M165 1310 c5 -8 10 -19 10 -25 1 -5 7 -9 14 -7 7 1 10 -2 6 -7 -3 -6
-13 -7 -23 -4 -14 6 -15 4 -4 -9 9 -11 10 -23 3 -41 -7 -19 -6 -28 4 -37 12
-10 18 -5 32 24 9 20 20 36 24 36 4 0 9 9 12 20 4 14 0 20 -13 20 -9 0 -30 10
-46 22 -15 13 -24 16 -19 8z m35 -80 c-6 -11 -12 -20 -14 -20 -2 0 -2 9 1 20
3 11 9 20 15 20 5 0 4 -9 -2 -20z"/>
<path d="M978 1313 c6 -2 18 -2 25 0 6 3 1 5 -13 5 -14 0 -19 -2 -12 -5z"/>
<path d="M2497 1305 c-4 -8 -2 -17 3 -20 6 -4 10 -4 10 -1 0 2 3 11 6 20 3 9
2 16 -4 16 -5 0 -12 -7 -15 -15z"/>
<path d="M2740 1300 c0 -5 5 -10 11 -10 5 0 7 5 4 10 -3 6 -8 10 -11 10 -2 0
-4 -4 -4 -10z"/>
<path d="M2826 1294 c-3 -9 -2 -22 2 -31 6 -10 9 -5 9 16 0 35 -2 38 -11 15z"/>
<path d="M51 1284 c0 -11 3 -14 6 -6 3 7 2 16 -1 19 -3 4 -6 -2 -5 -13z"/>
<path d="M1810 1289 c0 -5 5 -7 10 -4 6 3 10 8 10 11 0 2 -4 4 -10 4 -5 0 -10
-5 -10 -11z"/>
<path d="M365 1280 c3 -5 8 -10 11 -10 2 0 4 5 4 10 0 6 -5 10 -11 10 -5 0 -7
-4 -4 -10z"/>
<path d="M2390 1280 c0 -5 7 -7 15 -4 8 4 15 8 15 10 0 2 -7 4 -15 4 -8 0 -15
-4 -15 -10z"/>
<path d="M2917 1279 c7 -9 10 -18 7 -22 -3 -3 4 -3 15 0 12 3 24 9 27 14 3 5
-2 6 -11 3 -8 -4 -23 0 -33 7 -15 12 -16 12 -5 -2z"/>
<path d="M280 1269 c0 -5 -4 -8 -9 -4 -13 7 -30 -26 -23 -44 2 -8 0 -11 -6 -7
-5 3 -12 0 -15 -7 -3 -7 3 -14 14 -14 10 -1 18 1 18 5 -1 4 -1 20 0 35 1 20 5
26 14 20 23 -14 37 -11 37 8 0 10 -7 19 -15 19 -8 0 -15 -5 -15 -11z"/>
<path d="M2238 1273 c7 -3 16 -2 19 1 4 3 -2 6 -13 5 -11 0 -14 -3 -6 -6z"/>
<path d="M2715 1270 c3 -5 10 -10 16 -10 5 0 9 5 9 10 0 6 -7 10 -16 10 -8 0
-12 -4 -9 -10z"/>
<path d="M0 1254 c0 -8 5 -12 10 -9 6 4 8 11 5 16 -9 14 -15 11 -15 -7z"/>
<path d="M2076 1258 c3 -4 9 -8 15 -8 5 0 9 4 9 8 0 5 -7 9 -15 9 -8 0 -12 -4
-9 -9z"/>
<path d="M2190 1254 c0 -8 5 -12 10 -9 6 3 10 10 10 16 0 5 -4 9 -10 9 -5 0
-10 -7 -10 -16z"/>
<path d="M2226 1243 c-6 -14 -5 -15 5 -6 7 7 10 15 7 18 -3 3 -9 -2 -12 -12z"/>
<path d="M2410 1239 c0 -5 5 -7 10 -4 6 3 10 8 10 11 0 2 -4 4 -10 4 -5 0 -10
-5 -10 -11z"/>
<path d="M2970 1240 c0 -5 5 -10 11 -10 5 0 7 5 4 10 -3 6 -8 10 -11 10 -2 0
-4 -4 -4 -10z"/>
<path d="M28 1233 c7 -3 16 -2 19 1 4 3 -2 6 -13 5 -11 0 -14 -3 -6 -6z"/>
<path d="M277 1219 c3 -10 10 -19 15 -19 5 0 6 5 3 10 -3 6 -1 10 6 10 16 0 3
13 -15 16 -9 1 -12 -5 -9 -17z"/>
<path d="M2921 1224 c0 -11 3 -14 6 -6 3 7 2 16 -1 19 -3 4 -6 -2 -5 -13z"/>
<path d="M810 1221 c0 -15 10 -19 65 -25 37 -4 42 -3 20 3 -16 5 -25 9 -20 10
6 1 3 6 -5 11 -19 12 -60 13 -60 1z"/>
<path d="M2240 1203 c0 -16 16 -17 25 -3 4 6 15 8 26 5 11 -4 19 -2 19 4 0 6
-15 10 -35 8 -20 -1 -35 -7 -35 -14z"/>
<path d="M2660 1201 c-10 -20 4 -41 17 -27 4 3 1 6 -5 6 -6 0 -9 7 -5 16 6 15
7 15 20 -1 7 -10 16 -16 19 -12 4 4 14 1 22 -6 13 -11 14 -9 2 10 -8 12 -17
20 -21 17 -4 -2 -10 0 -14 6 -10 16 -23 12 -35 -9z"/>
<path d="M2955 1210 c-3 -5 -1 -10 4 -10 6 0 11 5 11 10 0 6 -2 10 -4 10 -3 0
-8 -4 -11 -10z"/>
<path d="M510 1179 c0 -5 5 -7 10 -4 6 3 10 8 10 11 0 2 -4 4 -10 4 -5 0 -10
-5 -10 -11z"/>
<path d="M828 1183 c7 -3 16 -2 19 1 4 3 -2 6 -13 5 -11 0 -14 -3 -6 -6z"/>
<path d="M2260 1180 c-9 -6 -10 -10 -3 -10 6 0 15 5 18 10 8 12 4 12 -15 0z"/>
<path d="M2513 1176 c1 -6 -8 -15 -20 -21 -27 -12 -31 -27 -5 -18 9 3 14 2 10
-2 -10 -11 -69 -14 -62 -3 3 4 0 16 -5 25 -6 10 -11 16 -11 13 -8 -34 -5 -43
16 -57 23 -14 26 -14 59 8 19 13 33 29 31 35 -3 6 0 16 5 21 6 6 4 10 -5 10
-8 0 -14 -5 -13 -11z"/>
<path d="M387 1166 c-18 -14 -14 -46 5 -46 6 0 8 6 5 14 -3 8 1 17 9 20 14 6
20 26 7 26 -5 0 -16 -7 -26 -14z"/>
<path d="M2101 1164 c0 -11 3 -14 6 -6 3 7 2 16 -1 19 -3 4 -6 -2 -5 -13z"/>
<path d="M2553 1167 c4 -14 26 -16 30 -3 1 5 -6 10 -16 12 -10 1 -16 -3 -14
-9z"/>
<path d="M2781 1164 c0 -11 3 -14 6 -6 3 7 2 16 -1 19 -3 4 -6 -2 -5 -13z"/>
<path d="M2845 1160 c-3 -5 -1 -10 4 -10 6 0 11 5 11 10 0 6 -2 10 -4 10 -3 0
-8 -4 -11 -10z"/>
<path d="M2268 1153 c7 -3 16 -2 19 1 4 3 -2 6 -13 5 -11 0 -14 -3 -6 -6z"/>
<path d="M146 1141 c-4 -7 -5 -15 -2 -18 9 -9 19 4 14 18 -4 11 -6 11 -12 0z"/>
<path d="M1917 1139 c7 -7 15 -10 18 -7 3 3 -2 9 -12 12 -14 6 -15 5 -6 -5z"/>
<path d="M2196 1123 c-6 -14 -5 -15 5 -6 7 7 10 15 7 18 -3 3 -9 -2 -12 -12z"/>
<path d="M2790 1136 c0 -2 7 -6 15 -10 8 -3 15 -1 15 4 0 6 -7 10 -15 10 -8 0
-15 -2 -15 -4z"/>
<path d="M2121 1114 c6 -7 17 -10 25 -7 20 7 18 10 -11 15 -20 4 -23 2 -14 -8z"/>
<path d="M2268 1123 c6 -2 18 -2 25 0 6 3 1 5 -13 5 -14 0 -19 -2 -12 -5z"/>
<path d="M2365 1120 c-3 -5 -1 -10 4 -10 6 0 11 5 11 10 0 6 -2 10 -4 10 -3 0
-8 -4 -11 -10z"/>
<path d="M1840 1110 c-17 -11 10 -19 34 -10 19 6 19 7 -1 12 -11 3 -26 2 -33
-2z"/>
<path d="M2577 1105 c-5 -10 0 -15 14 -15 12 0 19 5 17 12 -6 18 -25 20 -31 3z"/>
<path d="M1043 1103 c9 -2 23 -2 30 0 6 3 -1 5 -18 5 -16 0 -22 -2 -12 -5z"/>
<path d="M1758 1103 c7 -3 16 -2 19 1 4 3 -2 6 -13 5 -11 0 -14 -3 -6 -6z"/>
<path d="M2088 1099 c19 -20 14 -31 -9 -19 -19 11 -20 10 -9 -10 6 -12 17 -19
23 -17 17 5 15 49 -3 55 -12 4 -13 2 -2 -9z"/>
<path d="M845 1090 c-8 -13 5 -13 25 0 13 8 13 10 -2 10 -9 0 -20 -4 -23 -10z"/>
<path d="M2790 1086 c7 -7 13 -7 20 0 6 6 3 10 -10 10 -13 0 -16 -4 -10 -10z"/>
<path d="M2125 1082 c-13 -13 -3 -23 18 -17 34 11 41 23 13 23 -14 0 -28 -3
-31 -6z"/>
<path d="M2344 1072 c-16 -2 -21 -10 -21 -29 0 -21 1 -23 9 -10 5 10 14 17 19
17 6 0 7 -4 4 -10 -10 -17 -1 -11 17 9 18 21 8 29 -28 23z"/>
<path d="M2455 1069 c-3 -4 2 -6 10 -5 21 3 28 13 10 13 -9 0 -18 -4 -20 -8z"/>
<path d="M2376 1034 c-3 -8 -2 -12 4 -9 6 3 10 2 10 -4 0 -6 8 -7 17 -4 11 4
13 8 5 11 -7 2 -10 8 -6 13 3 5 -1 9 -9 9 -8 0 -18 -7 -21 -16z"/>
<path d="M2264 1033 c3 -3 0 -13 -7 -21 -10 -13 -9 -14 10 -4 31 17 35 28 11
29 -11 1 -18 -1 -14 -4z"/>
<path d="M2940 1015 c0 -8 4 -15 8 -15 5 0 9 7 9 15 0 8 -4 15 -9 15 -4 0 -8
-7 -8 -15z"/>
<path d="M2465 1011 c-3 -5 2 -11 10 -15 8 -3 17 -1 20 3 3 5 -2 11 -10 15 -8
3 -17 1 -20 -3z"/>
<path d="M2868 1013 c7 -3 16 -2 19 1 4 3 -2 6 -13 5 -11 0 -14 -3 -6 -6z"/>
<path d="M2915 1010 c3 -5 8 -10 11 -10 2 0 4 5 4 10 0 6 -5 10 -11 10 -5 0
-7 -4 -4 -10z"/>
<path d="M2670 999 c0 -6 6 -17 14 -25 17 -16 31 -2 22 21 -6 17 -36 20 -36 4z"/>
<path d="M2830 1006 c0 -2 7 -7 16 -10 8 -3 12 -2 9 4 -6 10 -25 14 -25 6z"/>
<path d="M2610 984 c0 -13 18 -39 24 -34 2 3 -2 14 -10 24 -8 11 -14 16 -14
10z"/>
<path d="M2880 980 c0 -5 5 -10 11 -10 5 0 7 5 4 10 -3 6 -8 10 -11 10 -2 0
-4 -4 -4 -10z"/>
<path d="M2567 966 c-7 -17 22 -31 36 -17 6 6 2 13 -11 20 -15 8 -21 7 -25 -3z"/>
<path d="M2925 950 c3 -5 8 -10 11 -10 2 0 4 5 4 10 0 6 -5 10 -11 10 -5 0 -7
-4 -4 -10z"/>
<path d="M2956 945 c-4 -11 1 -15 17 -14 12 0 16 3 9 6 -6 2 -10 9 -6 14 3 5
1 9 -4 9 -6 0 -12 -7 -16 -15z"/>
<path d="M2550 930 c0 -6 7 -10 15 -10 8 0 15 2 15 4 0 2 -7 6 -15 10 -8 3
-15 1 -15 -4z"/>
<path d="M2895 897 c-8 -11 -12 -24 -9 -29 6 -9 39 6 49 22 3 5 13 6 22 3 10
-4 14 -2 10 4 -13 21 -57 21 -72 0z m35 -1 c0 -3 -4 -8 -10 -11 -5 -3 -10 -1
-10 4 0 6 5 11 10 11 6 0 10 -2 10 -4z"/>
<path d="M2836 903 c-14 -14 -5 -24 10 -12 15 12 16 11 10 -11 -7 -24 -6 -24
8 -6 9 11 16 23 16 26 0 8 -37 10 -44 3z"/>
<path d="M2376 881 c-15 -17 -15 -19 -1 -25 9 -3 14 -2 10 3 -3 5 2 17 11 25
8 9 11 16 6 16 -5 0 -17 -8 -26 -19z"/>
<path d="M726 880 c-27 -9 -7 -18 24 -10 18 4 21 8 10 12 -8 3 -24 2 -34 -2z"/>
<path d="M2673 875 c0 -8 4 -12 9 -9 5 3 6 10 3 15 -9 13 -12 11 -12 -6z"/>
<path d="M2696 853 c-3 -4 -6 -14 -6 -24 0 -13 -5 -16 -17 -12 -11 4 -14 3 -9
-6 4 -6 16 -9 26 -6 9 3 28 1 42 -4 29 -11 81 20 58 34 -9 5 -11 4 -6 -4 5 -8
0 -10 -18 -7 -14 2 -27 -1 -30 -7 -3 -8 -5 -8 -5 1 -1 17 -27 43 -35 35z"/>
<path d="M2817 844 c6 -16 19 -18 27 -5 3 5 -3 11 -13 14 -14 3 -18 1 -14 -9z"/>
<path d="M320 830 c-12 -8 -9 -10 13 -10 16 0 26 4 22 10 -8 12 -16 12 -35 0z"/>
<path d="M380 820 c20 -13 47 -13 55 0 4 6 -9 10 -32 10 -28 0 -34 -3 -23 -10z"/>
<path d="M370 790 c-12 -8 -10 -10 8 -10 13 0 20 4 17 10 -7 12 -6 12 -25 0z"/>
<path d="M2645 770 c3 -5 16 -10 28 -9 21 0 21 1 2 9 -28 12 -37 12 -30 0z"/>
<path d="M2948 758 c-4 -24 -2 -28 16 -28 13 0 16 3 10 8 -7 4 -14 16 -16 27
-3 17 -5 15 -10 -7z"/>
<path d="M780 730 c-13 -8 -12 -10 3 -10 9 0 17 5 17 10 0 12 -1 12 -20 0z"/>
<path d="M843 733 c9 -2 25 -2 35 0 9 3 1 5 -18 5 -19 0 -27 -2 -17 -5z"/>
<path d="M2645 721 c-3 -6 9 -9 30 -7 47 4 52 11 10 14 -18 1 -36 -2 -40 -7z"/>
<path d="M2600 710 c0 -5 7 -10 16 -10 8 0 12 5 9 10 -3 6 -10 10 -16 10 -5 0
-9 -4 -9 -10z"/>
<path d="M307 696 c-3 -8 0 -13 6 -12 15 2 22 19 9 24 -5 1 -12 -4 -15 -12z"/>
<path d="M2828 703 c7 -3 16 -2 19 1 4 3 -2 6 -13 5 -11 0 -14 -3 -6 -6z"/>
<path d="M2910 700 c0 -5 5 -10 10 -10 6 0 10 5 10 10 0 6 -4 10 -10 10 -5 0
-10 -4 -10 -10z"/>
<path d="M2960 695 c-18 -22 0 -37 23 -21 14 11 15 15 3 25 -10 9 -16 8 -26
-4z"/>
<path d="M2625 690 c-22 -4 -35 -8 -30 -9 6 -1 3 -6 -5 -11 -13 -8 -13 -10 1
-10 9 0 19 3 23 7 3 4 12 8 19 9 42 9 60 14 65 19 7 6 -20 4 -73 -5z"/>
<path d="M210 680 c0 -5 5 -10 11 -10 5 0 7 5 4 10 -3 6 -8 10 -11 10 -2 0 -4
-4 -4 -10z"/>
<path d="M2922 671 c2 -8 13 -19 24 -25 10 -6 22 -15 25 -20 4 -5 13 -6 20 -4
9 3 0 12 -21 23 -19 10 -39 23 -43 29 -6 7 -7 6 -5 -3z"/>
<path d="M950 636 c0 -19 25 -27 52 -17 20 7 20 8 2 16 -35 15 -54 15 -54 1z"/>
<path d="M40 600 c0 -6 -5 -8 -11 -4 -20 12 -29 -19 -28 -93 1 -47 5 -73 13
-73 6 0 5 -4 -3 -9 -10 -7 2 -9 37 -8 29 0 52 4 52 9 0 4 8 8 18 8 14 0 14 2
3 9 -8 5 -20 7 -28 4 -7 -3 -13 0 -13 6 0 6 19 11 44 11 39 0 44 2 39 20 -4
14 -9 17 -17 11 -7 -6 -17 -6 -26 -1 -8 6 -10 10 -5 10 6 0 1 7 -9 15 -17 13
-17 15 -4 15 9 0 20 -4 23 -10 3 -5 17 -10 29 -10 18 0 23 5 22 23 -1 12 2 25
7 28 4 3 0 12 -9 20 -16 12 -17 12 -11 -3 3 -10 2 -20 -3 -23 -6 -4 -10 -1
-10 4 0 6 -7 11 -16 11 -14 0 -14 -3 -4 -15 11 -13 10 -14 -6 -9 -10 4 -24 11
-30 15 -6 5 -14 6 -18 2 -4 -4 -4 0 -1 9 4 11 -1 20 -14 28 -15 8 -21 8 -21 0z
m10 -45 c9 -11 9 -15 1 -15 -7 0 -9 -4 -6 -10 3 -5 1 -10 -4 -10 -6 0 -11 4
-11 9 0 5 -3 16 -6 25 -8 20 10 21 26 1z m0 -85 c0 -5 -5 -10 -11 -10 -5 0 -7
5 -4 10 3 6 8 10 11 10 2 0 4 -4 4 -10z"/>
<path d="M1765 600 c-6 -10 2 -14 20 -10 5 1 14 -5 20 -13 5 -7 20 -19 33 -26
12 -7 20 -16 17 -20 -2 -5 9 -14 26 -21 23 -10 27 -15 17 -22 -9 -7 -5 -8 12
-4 14 3 30 6 35 6 6 0 -1 9 -15 19 -22 17 -22 19 -5 18 11 -1 24 -8 28 -14 10
-15 37 -17 37 -3 0 6 -5 10 -11 10 -5 0 -7 5 -3 12 4 7 3 8 -5 4 -6 -4 -18 -2
-26 4 -8 7 -15 9 -15 5 0 -5 -8 -1 -18 8 -10 9 -34 20 -53 23 -19 4 -38 10
-44 14 -20 14 -45 19 -50 10z m130 -70 c3 -6 -1 -7 -9 -4 -18 7 -21 14 -7 14
6 0 13 -4 16 -10z"/>
<path d="M2360 567 c10 -9 82 -18 77 -10 -3 5 -23 10 -43 11 -21 2 -36 1 -34
-1z"/>
<path d="M224 549 c-3 -5 6 -9 20 -9 31 0 34 6 6 13 -11 3 -23 1 -26 -4z"/>
<path d="M957 549 c-9 -6 -17 -20 -17 -32 0 -14 3 -18 8 -10 4 7 18 11 30 8
12 -2 24 0 27 5 3 5 13 6 21 3 14 -5 15 -3 3 18 -7 14 -14 19 -16 12 -3 -9
-10 -10 -22 -4 -10 6 -23 6 -34 0z"/>
<path d="M738 526 c-4 -19 -1 -22 20 -18 20 4 24 2 19 -12 -4 -9 -2 -16 4 -16
6 0 13 9 16 20 3 11 13 20 22 20 14 0 14 -2 1 -10 -8 -5 -10 -10 -5 -10 6 1
19 8 30 17 16 12 16 14 3 10 -10 -3 -20 -1 -24 4 -3 6 -15 8 -27 5 -11 -3 -28
-1 -37 4 -14 8 -19 5 -22 -14z"/>
<path d="M1065 530 c-3 -5 -1 -10 4 -10 6 0 11 5 11 10 0 6 -2 10 -4 10 -3 0
-8 -4 -11 -10z"/>
<path d="M1770 530 c20 -13 33 -13 25 0 -3 6 -14 10 -23 10 -15 0 -15 -2 -2
-10z"/>
<path d="M1824 520 c1 -14 6 -24 9 -22 11 4 11 6 -1 27 -11 19 -12 18 -8 -5z"/>
<path d="M2388 512 c3 -10 14 -12 35 -8 16 3 33 6 38 6 5 0 9 3 9 8 0 4 -20 7
-44 7 -32 0 -42 -3 -38 -13z"/>
<path d="M2491 517 c-8 -10 -7 -14 2 -14 8 0 14 6 14 14 0 7 -1 13 -2 13 -2 0
-8 -6 -14 -13z"/>
<path d="M2930 520 c0 -5 5 -10 11 -10 5 0 7 5 4 10 -3 6 -8 10 -11 10 -2 0
-4 -4 -4 -10z"/>
<path d="M190 509 c0 -5 5 -7 10 -4 6 3 10 8 10 11 0 2 -4 4 -10 4 -5 0 -10
-5 -10 -11z"/>
<path d="M2891 494 c0 -11 3 -14 6 -6 3 7 2 16 -1 19 -3 4 -6 -2 -5 -13z"/>
<path d="M731 486 c-20 -11 -21 -14 -6 -19 24 -10 32 -8 15 3 -13 8 -12 10 3
10 9 0 17 5 17 10 0 12 0 12 -29 -4z"/>
<path d="M631 464 c0 -11 3 -14 6 -6 3 7 2 16 -1 19 -3 4 -6 -2 -5 -13z"/>
<path d="M680 470 c0 -5 5 -10 11 -10 5 0 7 5 4 10 -3 6 -8 10 -11 10 -2 0 -4
-4 -4 -10z"/>
<path d="M2040 470 c0 -5 7 -10 16 -10 8 0 12 5 9 10 -3 6 -10 10 -16 10 -5 0
-9 -4 -9 -10z"/>
<path d="M2770 459 c0 -5 5 -7 10 -4 6 3 10 8 10 11 0 2 -4 4 -10 4 -5 0 -10
-5 -10 -11z"/>
<path d="M943 453 c-24 -2 -43 -8 -43 -12 0 -14 93 -7 98 7 2 6 0 11 -5 10 -4
-1 -27 -3 -50 -5z"/>
<path d="M1020 450 c0 -5 5 -10 11 -10 5 0 7 5 4 10 -3 6 -8 10 -11 10 -2 0
-4 -4 -4 -10z"/>
<path d="M1815 450 c-3 -6 1 -7 9 -4 18 7 21 14 7 14 -6 0 -13 -4 -16 -10z"/>
<path d="M2141 449 c18 -11 46 -12 53 -1 3 4 -11 9 -31 9 -25 1 -32 -2 -22 -8z"/>
<path d="M1898 418 c5 -5 16 -8 23 -6 8 3 3 7 -10 11 -17 4 -21 3 -13 -5z"/>
<path d="M2758 423 c-10 -2 -18 -8 -18 -13 0 -4 9 -6 20 -3 11 3 20 9 20 14 0
5 -1 8 -2 8 -2 -1 -11 -3 -20 -6z"/>
<path d="M196 411 c-3 -5 1 -11 9 -15 8 -3 15 -1 15 4 0 13 -18 22 -24 11z"/>
<path d="M238 413 c7 -3 16 -2 19 1 4 3 -2 6 -13 5 -11 0 -14 -3 -6 -6z"/>
<path d="M2450 410 c0 -5 5 -10 10 -10 6 0 10 5 10 10 0 6 -4 10 -10 10 -5 0
-10 -4 -10 -10z"/>
<path d="M2970 400 c0 -5 5 -10 11 -10 5 0 7 5 4 10 -3 6 -8 10 -11 10 -2 0
-4 -4 -4 -10z"/>
<path d="M10 385 c9 -11 9 -15 1 -15 -7 0 -10 -4 -7 -8 3 -5 19 -8 36 -7 21 1
36 -5 46 -19 7 -11 14 -16 14 -10 0 14 -33 44 -48 44 -6 0 -14 5 -18 12 -4 6
-3 8 4 4 6 -3 13 -2 17 4 4 6 -7 10 -26 10 -27 0 -30 -2 -19 -15z"/>
<path d="M78 393 c6 -2 18 -2 25 0 6 3 1 5 -13 5 -14 0 -19 -2 -12 -5z"/>
<path d="M1068 383 c6 -2 18 -2 25 0 6 3 1 5 -13 5 -14 0 -19 -2 -12 -5z"/>
<path d="M2398 383 c7 -3 16 -2 19 1 4 3 -2 6 -13 5 -11 0 -14 -3 -6 -6z"/>
<path d="M2880 380 c0 -5 5 -10 10 -10 6 0 10 5 10 10 0 6 -4 10 -10 10 -5 0
-10 -4 -10 -10z"/>
<path d="M667 369 c7 -7 15 -10 18 -7 3 3 -2 9 -12 12 -14 6 -15 5 -6 -5z"/>
<path d="M2735 370 c3 -5 8 -10 11 -10 2 0 4 5 4 10 0 6 -5 10 -11 10 -5 0 -7
-4 -4 -10z"/>
<path d="M2918 373 c7 -3 16 -2 19 1 4 3 -2 6 -13 5 -11 0 -14 -3 -6 -6z"/>
<path d="M2963 373 c9 -2 23 -2 30 0 6 3 -1 5 -18 5 -16 0 -22 -2 -12 -5z"/>
<path d="M106 345 c4 -8 8 -15 10 -15 2 0 4 7 4 15 0 8 -4 15 -10 15 -5 0 -7
-7 -4 -15z"/>
<path d="M947 349 c-10 -6 -25 -8 -32 -5 -15 5 -48 -32 -40 -44 3 -4 -7 -10
-20 -13 -14 -2 -28 0 -31 4 -11 18 -32 8 -38 -16 -4 -14 -11 -23 -16 -20 -6 3
-10 2 -10 -4 0 -15 23 -26 28 -13 2 7 11 12 19 12 8 0 13 6 10 13 -3 9 10 12
49 11 30 0 54 4 54 9 0 4 10 5 21 2 l22 -7 -21 23 c-12 12 -20 25 -17 28 3 2
11 -4 19 -14 13 -18 14 -18 21 4 4 15 12 20 24 16 22 -7 51 3 51 17 0 7 -4 7
-12 0 -8 -5 -22 -6 -33 -1 -26 10 -27 10 -48 -2z m-37 -24 c0 -8 -4 -15 -10
-15 -5 0 -7 7 -4 15 4 8 8 15 10 15 2 0 4 -7 4 -15z"/>
<path d="M2430 349 c0 -5 5 -7 10 -4 6 3 10 8 10 11 0 2 -4 4 -10 4 -5 0 -10
-5 -10 -11z"/>
<path d="M850 340 c0 -5 5 -10 10 -10 6 0 10 5 10 10 0 6 -4 10 -10 10 -5 0
-10 -4 -10 -10z"/>
<path d="M2340 335 c-11 -13 -10 -14 4 -9 9 3 16 10 16 15 0 13 -6 11 -20 -6z"/>
<path d="M0 323 c0 -7 5 -13 10 -13 6 0 10 5 10 11 0 5 5 7 11 4 6 -4 8 -14 5
-22 -4 -8 -1 -11 5 -8 6 4 8 14 5 22 -5 12 -1 14 14 10 11 -3 17 -1 14 4 -8
14 -74 7 -74 -8z"/>
<path d="M697 323 c5 -12 2 -15 -10 -10 -12 4 -14 2 -10 -10 4 -9 2 -14 -3
-10 -17 10 -37 -10 -30 -29 5 -12 10 -14 14 -7 4 6 20 11 35 11 16 0 36 6 44
15 19 19 10 52 -12 43 -8 -3 -15 -1 -15 4 0 6 -4 10 -10 10 -5 0 -6 -8 -3 -17z"/>
<path d="M800 330 c0 -5 7 -10 15 -10 8 0 15 5 15 10 0 6 -7 10 -15 10 -8 0
-15 -4 -15 -10z"/>
<path d="M1458 323 c7 -3 16 -2 19 1 4 3 -2 6 -13 5 -11 0 -14 -3 -6 -6z"/>
<path d="M2027 289 c7 -7 15 -10 18 -7 3 3 -2 9 -12 12 -14 6 -15 5 -6 -5z"/>
<path d="M2450 296 c0 -2 7 -7 16 -10 8 -3 12 -2 9 4 -6 10 -25 14 -25 6z"/>
<path d="M1441 283 c-1 -6 5 -18 12 -25 7 -7 16 -21 20 -30 3 -10 11 -18 17
-18 7 0 6 8 -2 23 -7 12 -11 25 -10 30 1 4 -4 7 -12 7 -8 0 -17 6 -19 13 -4 8
-6 9 -6 0z"/>
<path d="M1521 274 c0 -11 3 -14 6 -6 3 7 2 16 -1 19 -3 4 -6 -2 -5 -13z"/>
<path d="M2133 283 c-7 -2 -13 -8 -13 -13 0 -10 38 -1 46 11 6 10 -13 11 -33
2z"/>
<path d="M2225 280 c-3 -5 1 -10 9 -10 9 0 16 5 16 10 0 6 -4 10 -9 10 -6 0
-13 -4 -16 -10z"/>
<path d="M2490 280 c0 -6 11 -8 28 -4 39 10 40 14 4 14 -18 0 -32 -5 -32 -10z"/>
<path d="M2590 280 c0 -6 7 -10 15 -10 8 0 15 2 15 4 0 2 -7 6 -15 10 -8 3
-15 1 -15 -4z"/>
<path d="M17 256 c-4 -9 3 -13 19 -13 29 0 30 3 5 16 -14 8 -20 7 -24 -3z"/>
<path d="M614 239 c0 -21 4 -23 25 -10 11 7 10 11 -6 19 -15 9 -19 7 -19 -9z"/>
<path d="M2144 250 c-23 -37 -32 -60 -23 -60 5 0 13 8 16 18 4 9 11 20 16 23
5 4 7 13 5 20 -3 10 -6 10 -14 -1z"/>
<path d="M2431 251 c-7 -5 -9 -11 -4 -14 5 -3 15 -2 22 2 7 5 9 11 4 14 -5 3
-15 2 -22 -2z"/>
<path d="M2513 244 c0 -15 43 -31 54 -20 4 3 -1 6 -10 6 -9 0 -17 4 -17 9 0 5
-6 11 -13 14 -8 3 -14 -1 -14 -9z"/>
<path d="M680 240 c0 -6 7 -10 15 -10 8 0 15 2 15 4 0 2 -7 6 -15 10 -8 3 -15
1 -15 -4z"/>
<path d="M2610 231 c0 -6 4 -12 8 -15 5 -3 9 1 9 9 0 8 -4 15 -9 15 -4 0 -8
-4 -8 -9z"/>
<path d="M2940 218 c0 -4 -8 -8 -17 -9 -10 0 -13 -3 -7 -5 7 -3 27 2 45 10 33
14 33 14 7 13 -16 -1 -28 -5 -28 -9z"/>
<path d="M1517 213 c-14 -13 -6 -33 12 -33 14 0 18 5 14 20 -5 21 -15 25 -26
13z"/>
<path d="M2990 200 c0 -5 -20 -10 -44 -10 -49 0 -65 -13 -43 -35 21 -21 73
-13 69 11 -2 18 -2 18 11 2 12 -16 14 -14 14 12 0 17 -2 30 -4 30 -1 0 -3 -4
-3 -10z"/>
<path d="M2455 190 c3 -5 8 -10 11 -10 2 0 4 5 4 10 0 6 -5 10 -11 10 -5 0 -7
-4 -4 -10z"/>
<path d="M2131 179 c-18 -7 -22 -14 -17 -33 3 -14 2 -27 -3 -31 -5 -3 -9 -14
-8 -25 1 -15 6 -18 22 -14 11 4 23 11 26 16 4 7 14 6 27 -1 17 -9 22 -8 27 10
5 15 10 18 18 10 6 -6 17 -11 24 -11 11 0 11 4 1 20 -17 26 -39 30 -63 11 -18
-15 -19 -15 -7 1 10 12 11 22 3 35 -6 10 -11 14 -11 8 0 -6 -3 -5 -8 1 -4 8
-15 8 -31 3z"/>
<path d="M900 165 c-7 -8 -9 -19 -6 -24 4 -6 -2 -8 -14 -6 -11 2 -20 0 -20 -4
0 -11 49 -11 55 -1 3 5 21 7 40 5 22 -2 35 1 35 8 0 7 4 6 10 -3 7 -11 10 -11
10 -2 0 8 5 10 13 6 8 -5 9 -4 2 3 -15 16 -75 27 -75 14 0 -6 -8 -11 -17 -11
-14 0 -15 2 -5 9 11 7 11 9 -1 14 -9 3 -21 0 -27 -8z"/>
<path d="M2490 169 c0 -5 5 -7 10 -4 6 3 10 8 10 11 0 2 -4 4 -10 4 -5 0 -10
-5 -10 -11z"/>
<path d="M2710 170 c20 -13 43 -13 35 0 -3 6 -16 10 -28 10 -18 0 -19 -2 -7
-10z"/>
<path d="M2854 165 c2 -7 -1 -18 -7 -24 -14 -14 21 -15 43 -1 12 8 12 10 -3
16 -9 3 -15 9 -12 13 2 4 -3 8 -11 8 -8 0 -13 -6 -10 -12z"/>
<path d="M1485 162 c5 -10 0 -11 -22 -6 -26 7 -27 6 -14 -10 8 -9 21 -14 29
-11 8 3 20 1 27 -5 9 -8 15 -8 20 0 3 5 1 10 -6 10 -6 0 -18 8 -26 18 -8 9
-12 11 -8 4z"/>
<path d="M1526 161 c-3 -5 1 -11 9 -15 9 -3 15 0 15 9 0 16 -16 20 -24 6z"/>
<path d="M666 144 c-9 -8 -16 -21 -16 -27 0 -8 4 -7 9 2 8 12 18 16 66 20 13
2 -16 21 -32 21 -6 0 -19 -7 -27 -16z"/>
<path d="M740 150 c0 -6 7 -10 15 -10 8 0 15 2 15 4 0 2 -7 6 -15 10 -8 3 -15
1 -15 -4z"/>
<path d="M832 135 c1 -14 6 -25 11 -25 5 0 6 8 3 17 -4 9 -1 20 6 25 10 6 8 8
-4 8 -13 0 -17 -7 -16 -25z"/>
<path d="M1090 148 c0 -4 11 -8 25 -8 14 0 25 -5 25 -11 0 -6 -7 -8 -16 -5 -8
3 -12 2 -9 -4 3 -6 12 -10 19 -10 17 0 29 40 13 41 -7 0 -22 2 -34 3 -13 2
-23 -1 -23 -6z"/>
<path d="M1240 153 c0 -4 5 -15 10 -23 8 -13 10 -13 10 2 0 9 -4 20 -10 23 -5
3 -10 3 -10 -2z"/>
<path d="M1600 145 c0 -9 5 -15 11 -13 6 2 11 8 11 13 0 5 -5 11 -11 13 -6 2
-11 -4 -11 -13z"/>
<path d="M800 136 c0 -8 -6 -16 -14 -19 -9 -4 -13 -18 -11 -39 2 -18 3 -39 4
-46 1 -7 6 -10 12 -7 6 4 8 14 5 22 -4 9 -2 21 4 28 8 9 6 15 -7 20 -16 6 -16
8 5 16 22 8 31 39 12 39 -5 0 -10 -6 -10 -14z"/>
<path d="M1050 130 c0 -12 40 -34 48 -26 3 4 -3 13 -14 21 -22 17 -34 19 -34
5z"/>
<path d="M1825 130 c-3 -5 -1 -10 4 -10 6 0 11 5 11 10 0 6 -2 10 -4 10 -3 0
-8 -4 -11 -10z"/>
<path d="M2540 120 c8 -5 20 -10 25 -10 6 0 3 5 -5 10 -8 5 -19 10 -25 10 -5
0 -3 -5 5 -10z"/>
<path d="M2920 121 c-8 -6 -19 -7 -25 -3 -5 3 -3 -2 4 -12 14 -17 16 -17 27
-1 7 9 17 14 23 10 6 -3 11 -1 11 4 0 13 -20 14 -40 2z"/>
<path d="M740 111 c0 -5 -9 -13 -20 -16 -11 -4 -18 -10 -15 -15 3 -5 -3 -13
-12 -19 -10 -5 -14 -13 -10 -17 4 -4 13 -2 19 4 7 7 22 12 35 12 13 0 23 5 23
10 0 6 -5 10 -11 10 -6 0 -8 9 -4 20 3 11 4 20 1 20 -3 0 -6 -4 -6 -9z"/>
<path d="M1210 111 c0 -6 7 -14 16 -18 8 -3 13 -12 10 -19 -4 -11 2 -10 22 3
38 24 40 26 14 18 -16 -5 -30 -1 -43 11 -11 10 -19 12 -19 5z"/>
<path d="M1485 111 c3 -6 -3 -15 -13 -20 -11 -6 -26 -21 -35 -35 -16 -24 -16
-25 5 -21 12 3 24 8 27 13 3 5 13 12 21 15 11 4 10 6 -4 6 -15 1 -16 3 -6 16
7 9 19 14 27 11 7 -3 13 -1 13 3 0 5 -7 12 -16 15 -22 8 -26 8 -19 -3z"/>
<path d="M1548 103 c7 -3 16 -2 19 1 4 3 -2 6 -13 5 -11 0 -14 -3 -6 -6z"/>
<path d="M2600 84 c-13 -33 -13 -41 2 -26 11 11 20 52 11 52 -2 0 -8 -12 -13
-26z"/>
<path d="M926 92 c-3 -5 -17 -7 -31 -4 -16 3 -25 0 -25 -8 0 -7 -6 -10 -12 -7
-8 3 -13 -4 -13 -18 0 -14 4 -20 10 -16 19 14 50 7 49 -11 -2 -19 30 -25 41
-8 4 6 -1 7 -12 3 -10 -3 -15 -2 -10 2 4 5 -1 17 -10 27 -16 18 -16 18 2 12
12 -5 16 -4 12 3 -4 6 -1 13 5 16 7 2 10 7 7 11 -4 4 -10 3 -13 -2z"/>
<path d="M1110 80 c0 -25 13 -32 42 -21 17 7 18 10 6 10 -10 1 -18 5 -18 10 0
5 -7 11 -15 15 -10 3 -15 -1 -15 -14z"/>
<path d="M2066 85 c-11 -8 -18 -15 -15 -16 2 0 11 -2 19 -4 10 -1 16 5 17 16
2 22 3 22 -21 4z"/>
<path d="M1860 80 c0 -5 5 -10 11 -10 5 0 7 5 4 10 -3 6 -8 10 -11 10 -2 0 -4
-4 -4 -10z"/>
<path d="M1270 64 c-14 -8 -17 -13 -7 -10 9 3 17 3 17 -1 0 -3 -8 -12 -17 -19
-17 -12 -16 -13 4 -8 12 4 23 16 26 30 2 13 4 24 3 24 0 -1 -12 -8 -26 -16z"/>
<path d="M2151 59 c-9 -16 -15 -19 -21 -9 -5 7 -10 8 -14 2 -3 -5 1 -12 9 -16
15 -5 45 18 45 35 0 14 -4 11 -19 -12z"/>
<path d="M2285 70 c3 -5 8 -10 11 -10 2 0 4 5 4 10 0 6 -5 10 -11 10 -5 0 -7
-4 -4 -10z"/>
<path d="M1390 50 c6 -11 13 -20 16 -20 2 0 0 9 -6 20 -6 11 -13 20 -16 20 -2
0 0 -9 6 -20z"/>
<path d="M1766 63 c-3 -4 -6 -19 -6 -34 0 -21 4 -27 15 -23 8 4 12 11 9 16 -4
6 1 8 14 4 15 -5 20 -3 18 10 -3 18 -39 37 -50 27z"/>
<path d="M1900 60 c0 -5 5 -10 10 -10 6 0 10 5 10 10 0 6 -4 10 -10 10 -5 0
-10 -4 -10 -10z"/>
<path d="M1943 63 c-7 -3 -13 -9 -13 -14 0 -6 5 -7 10 -4 6 3 16 3 23 -2 6 -4
23 -9 36 -11 22 -3 23 -1 11 13 -8 9 -22 14 -31 12 -10 -3 -19 -2 -21 3 -2 4
-9 5 -15 3z"/>
<path d="M2930 59 c0 -5 5 -7 10 -4 6 3 10 8 10 11 0 2 -4 4 -10 4 -5 0 -10
-5 -10 -11z"/>
<path d="M987 42 c-9 -9 -13 -22 -9 -27 9 -13 112 -16 112 -4 0 5 -8 9 -17 9
-15 0 -15 1 2 13 16 13 15 14 -12 10 -17 -3 -34 0 -37 6 -10 16 -20 14 -39 -7z
m35 -14 c-12 -12 -35 -1 -27 12 3 5 13 6 21 3 10 -4 12 -9 6 -15z"/>
<path d="M1645 50 c3 -5 13 -10 21 -10 8 0 12 4 9 10 -3 6 -13 10 -21 10 -8 0
-12 -4 -9 -10z"/>
<path d="M1857 53 c-4 -3 -7 -11 -7 -17 0 -6 5 -5 12 2 6 6 9 14 7 17 -3 3 -9
2 -12 -2z"/>
<path d="M2025 50 c3 -5 8 -10 11 -10 2 0 4 5 4 10 0 6 -5 10 -11 10 -5 0 -7
-4 -4 -10z"/>
<path d="M2255 50 c-3 -5 -1 -10 4 -10 6 0 11 5 11 10 0 6 -2 10 -4 10 -3 0
-8 -4 -11 -10z"/>
<path d="M591 37 c13 -13 49 -18 49 -6 0 8 -26 19 -46 19 -12 0 -12 -3 -3 -13z"/>
<path d="M1150 35 c0 -8 7 -15 15 -15 8 0 15 4 15 9 0 5 -7 11 -15 15 -9 3
-15 0 -15 -9z"/>
<path d="M1105 23 c-8 -23 -6 -29 5 -13 5 8 10 10 10 5 0 -6 9 -11 20 -12 16
-1 18 1 8 16 -13 21 -35 23 -43 4z"/>
<path d="M1451 26 c-34 -19 -5 -27 31 -8 15 7 28 15 28 18 0 9 -36 3 -59 -10z"/>
<path d="M1880 26 c0 -9 7 -16 16 -16 17 0 14 22 -4 28 -7 2 -12 -3 -12 -12z"/>
<path d="M2651 36 c2 -2 18 -6 34 -10 22 -5 26 -4 15 4 -14 9 -59 15 -49 6z"/>
<path d="M2915 30 c-3 -5 -2 -10 4 -10 5 0 13 5 16 10 3 6 2 10 -4 10 -5 0
-13 -4 -16 -10z"/>
<path d="M1196 13 c-6 -14 -5 -15 5 -6 7 7 10 15 7 18 -3 3 -9 -2 -12 -12z"/>
<path d="M1662 18 c3 -7 13 -15 23 -17 17 -3 17 -2 3 13 -20 19 -31 21 -26 4z"/>
<path d="M1930 18 c0 -4 6 -8 14 -8 8 0 21 -3 30 -6 9 -3 16 -2 16 4 0 5 -13
12 -30 14 -16 3 -30 1 -30 -4z"/>
<path d="M555 10 c-3 -6 1 -7 9 -4 18 7 21 14 7 14 -6 0 -13 -4 -16 -10z"/>
<path d="M1720 10 c0 -5 5 -10 10 -10 6 0 10 5 10 10 0 6 -4 10 -10 10 -5 0
-10 -4 -10 -10z"/>
<path d="M2120 10 c-8 -5 -10 -10 -5 -10 6 0 17 5 25 10 8 5 11 10 5 10 -5 0
-17 -5 -25 -10z"/>
<path d="M2748 3 c7 -3 16 -2 19 1 4 3 -2 6 -13 5 -11 0 -14 -3 -6 -6z"/>
</g>
</svg>
